<?xml version="1.0" encoding="utf-8" standalone="no"?>
<!DOCTYPE svg PUBLIC "-//W3C//DTD SVG 1.1//EN"
  "http://www.w3.org/Graphics/SVG/1.1/DTD/svg11.dtd">
<!-- Created with matplotlib (https://matplotlib.org/) -->
<svg height="169.322863pt" version="1.1" viewBox="0 0 167.228315 169.322863" width="167.228315pt" xmlns="http://www.w3.org/2000/svg" xmlns:xlink="http://www.w3.org/1999/xlink">
 <metadata>
  <rdf:RDF xmlns:cc="http://creativecommons.org/ns#" xmlns:dc="http://purl.org/dc/elements/1.1/" xmlns:rdf="http://www.w3.org/1999/02/22-rdf-syntax-ns#">
   <cc:Work>
    <dc:type rdf:resource="http://purl.org/dc/dcmitype/StillImage"/>
    <dc:date>2021-08-15T16:31:40.136161</dc:date>
    <dc:format>image/svg+xml</dc:format>
    <dc:creator>
     <cc:Agent>
      <dc:title>Matplotlib v3.3.4, https://matplotlib.org/</dc:title>
     </cc:Agent>
    </dc:creator>
   </cc:Work>
  </rdf:RDF>
 </metadata>
 <defs>
  <style type="text/css">*{stroke-linecap:butt;stroke-linejoin:round;}</style>
 </defs>
 <g id="figure_1">
  <g id="patch_1">
   <path d="M 0 169.322863 
L 167.228315 169.322863 
L 167.228315 0 
L 0 0 
z
" style="fill:none;"/>
  </g>
  <g id="patch_2">
   <path d="M 7.242206 143.1 
L 143.142206 143.1 
L 143.142206 7.2 
L 7.242206 7.2 
z
" style="fill:#ffffff;"/>
  </g>
  <g id="pane3d_1">
   <g id="patch_3">
    <path d="M 17.503593 109.591415 
L 62.382211 71.973267 
L 61.758355 17.721174 
L 14.732064 52.038819 
" style="fill:#f2f2f2;opacity:0.5;stroke:#f2f2f2;stroke-linejoin:miter;"/>
   </g>
  </g>
  <g id="pane3d_2">
   <g id="patch_4">
    <path d="M 62.382211 71.973267 
L 134.396381 92.904944 
L 136.966312 36.784198 
L 61.758355 17.721174 
" style="fill:#e6e6e6;opacity:0.5;stroke:#e6e6e6;stroke-linejoin:miter;"/>
   </g>
  </g>
  <g id="pane3d_3">
   <g id="patch_5">
    <path d="M 17.503593 109.591415 
L 93.84213 134.523581 
L 134.396381 92.904944 
L 62.382211 71.973267 
" style="fill:#ececec;opacity:0.5;stroke:#ececec;stroke-linejoin:miter;"/>
   </g>
  </g>
  <g id="axis3d_1">
   <g id="line2d_1">
    <path d="M 17.503593 109.591415 
L 93.84213 134.523581 
" style="fill:none;stroke:#000000;stroke-linecap:square;stroke-width:0.8;"/>
   </g>
   <g id="text_1">
    <!-- x -->
    <g transform="translate(35.285103 160.043176)scale(0.1 -0.1)">
     <defs>
      <path d="M 54.890625 54.6875 
L 35.109375 28.078125 
L 55.90625 0 
L 45.3125 0 
L 29.390625 21.484375 
L 13.484375 0 
L 2.875 0 
L 24.125 28.609375 
L 4.6875 54.6875 
L 15.28125 54.6875 
L 29.78125 35.203125 
L 44.28125 54.6875 
z
" id="DejaVuSans-120"/>
     </defs>
     <use xlink:href="#DejaVuSans-120"/>
    </g>
   </g>
   <g id="Line3DCollection_1">
    <path d="M 22.127055 111.101438 
L 66.761892 73.246268 
L 66.323213 18.878232 
" style="fill:none;stroke:#b0b0b0;stroke-width:0.8;"/>
    <path d="M 54.666604 121.728855 
L 97.519476 82.186283 
L 98.41427 27.012379 
" style="fill:none;stroke:#b0b0b0;stroke-width:0.8;"/>
    <path d="M 88.738736 132.856813 
L 129.601877 91.511371 
L 131.949299 35.512532 
" style="fill:none;stroke:#b0b0b0;stroke-width:0.8;"/>
   </g>
   <g id="xtick_1">
    <g id="line2d_2">
     <path d="M 22.515733 110.771797 
L 21.348032 111.762134 
" style="fill:none;stroke:#000000;stroke-linecap:square;stroke-width:0.8;"/>
    </g>
    <g id="text_2">
     <!-- −1 -->
     <g transform="translate(7.2 134.466744)scale(0.1 -0.1)">
      <defs>
       <path d="M 10.59375 35.5 
L 73.1875 35.5 
L 73.1875 27.203125 
L 10.59375 27.203125 
z
" id="DejaVuSans-8722"/>
       <path d="M 12.40625 8.296875 
L 28.515625 8.296875 
L 28.515625 63.921875 
L 10.984375 60.40625 
L 10.984375 69.390625 
L 28.421875 72.90625 
L 38.28125 72.90625 
L 38.28125 8.296875 
L 54.390625 8.296875 
L 54.390625 0 
L 12.40625 0 
z
" id="DejaVuSans-49"/>
      </defs>
      <use xlink:href="#DejaVuSans-8722"/>
      <use x="83.789062" xlink:href="#DejaVuSans-49"/>
     </g>
    </g>
   </g>
   <g id="xtick_2">
    <g id="line2d_3">
     <path d="M 55.040462 121.383877 
L 53.917247 122.420325 
" style="fill:none;stroke:#000000;stroke-linecap:square;stroke-width:0.8;"/>
    </g>
    <g id="text_3">
     <!-- 0 -->
     <g transform="translate(43.997457 145.539064)scale(0.1 -0.1)">
      <defs>
       <path d="M 31.78125 66.40625 
Q 24.171875 66.40625 20.328125 58.90625 
Q 16.5 51.421875 16.5 36.375 
Q 16.5 21.390625 20.328125 13.890625 
Q 24.171875 6.390625 31.78125 6.390625 
Q 39.453125 6.390625 43.28125 13.890625 
Q 47.125 21.390625 47.125 36.375 
Q 47.125 51.421875 43.28125 58.90625 
Q 39.453125 66.40625 31.78125 66.40625 
z
M 31.78125 74.21875 
Q 44.046875 74.21875 50.515625 64.515625 
Q 56.984375 54.828125 56.984375 36.375 
Q 56.984375 17.96875 50.515625 8.265625 
Q 44.046875 -1.421875 31.78125 -1.421875 
Q 19.53125 -1.421875 13.0625 8.265625 
Q 6.59375 17.96875 6.59375 36.375 
Q 6.59375 54.828125 13.0625 64.515625 
Q 19.53125 74.21875 31.78125 74.21875 
z
" id="DejaVuSans-48"/>
      </defs>
      <use xlink:href="#DejaVuSans-48"/>
     </g>
    </g>
   </g>
   <g id="xtick_3">
    <g id="line2d_4">
     <path d="M 89.095932 132.495402 
L 88.02274 133.58126 
" style="fill:none;stroke:#000000;stroke-linecap:square;stroke-width:0.8;"/>
    </g>
    <g id="text_4">
     <!-- 1 -->
     <g transform="translate(78.152612 157.13687)scale(0.1 -0.1)">
      <use xlink:href="#DejaVuSans-49"/>
     </g>
    </g>
   </g>
  </g>
  <g id="axis3d_2">
   <g id="line2d_5">
    <path d="M 134.396381 92.904944 
L 93.84213 134.523581 
" style="fill:none;stroke:#000000;stroke-linecap:square;stroke-width:0.8;"/>
   </g>
   <g id="text_5">
    <!-- y -->
    <g transform="translate(139.069861 143.587338)scale(0.1 -0.1)">
     <defs>
      <path d="M 32.171875 -5.078125 
Q 28.375 -14.84375 24.75 -17.8125 
Q 21.140625 -20.796875 15.09375 -20.796875 
L 7.90625 -20.796875 
L 7.90625 -13.28125 
L 13.1875 -13.28125 
Q 16.890625 -13.28125 18.9375 -11.515625 
Q 21 -9.765625 23.484375 -3.21875 
L 25.09375 0.875 
L 2.984375 54.6875 
L 12.5 54.6875 
L 29.59375 11.921875 
L 46.6875 54.6875 
L 56.203125 54.6875 
z
" id="DejaVuSans-121"/>
     </defs>
     <use xlink:href="#DejaVuSans-121"/>
    </g>
   </g>
   <g id="Line3DCollection_2">
    <path d="M 17.984048 49.665669 
L 20.596109 106.999207 
L 96.64817 131.643894 
" style="fill:none;stroke:#b0b0b0;stroke-width:0.8;"/>
    <path d="M 39.291291 34.116614 
L 40.898687 89.981183 
L 115.027621 112.782056 
" style="fill:none;stroke:#b0b0b0;stroke-width:0.8;"/>
    <path d="M 59.005785 19.729874 
L 59.745943 74.18304 
L 132.024016 95.339573 
" style="fill:none;stroke:#b0b0b0;stroke-width:0.8;"/>
   </g>
   <g id="xtick_4">
    <g id="line2d_6">
     <path d="M 96.007277 131.436212 
L 97.931614 132.059794 
" style="fill:none;stroke:#000000;stroke-linecap:square;stroke-width:0.8;"/>
    </g>
    <g id="text_6">
     <!-- −1 -->
     <g transform="translate(102.165104 152.673329)scale(0.1 -0.1)">
      <use xlink:href="#DejaVuSans-8722"/>
      <use x="83.789062" xlink:href="#DejaVuSans-49"/>
     </g>
    </g>
   </g>
   <g id="xtick_5">
    <g id="line2d_7">
     <path d="M 114.404171 112.590293 
L 116.276069 113.166059 
" style="fill:none;stroke:#000000;stroke-linecap:square;stroke-width:0.8;"/>
    </g>
    <g id="text_7">
     <!-- 0 -->
     <g transform="translate(124.250678 133.264539)scale(0.1 -0.1)">
      <use xlink:href="#DejaVuSans-48"/>
     </g>
    </g>
   </g>
   <g id="xtick_6">
    <g id="line2d_8">
     <path d="M 131.417248 95.161966 
L 133.239002 95.695212 
" style="fill:none;stroke:#000000;stroke-linecap:square;stroke-width:0.8;"/>
    </g>
    <g id="text_8">
     <!-- 1 -->
     <g transform="translate(140.798291 115.317846)scale(0.1 -0.1)">
      <use xlink:href="#DejaVuSans-49"/>
     </g>
    </g>
   </g>
  </g>
  <g id="axis3d_3">
   <g id="line2d_9">
    <path d="M 134.396381 92.904944 
L 136.966312 36.784198 
" style="fill:none;stroke:#000000;stroke-linecap:square;stroke-width:0.8;"/>
   </g>
   <g id="Line3DCollection_3">
    <path d="M 134.445618 91.829732 
L 62.370234 70.931703 
L 17.450581 108.490593 
" style="fill:none;stroke:#b0b0b0;stroke-width:0.8;"/>
    <path d="M 135.653195 65.459319 
L 62.076788 45.41288 
L 16.149355 81.469798 
" style="fill:none;stroke:#b0b0b0;stroke-width:0.8;"/>
    <path d="M 136.912659 37.955845 
L 61.771353 18.851469 
L 14.790021 53.242344 
" style="fill:none;stroke:#b0b0b0;stroke-width:0.8;"/>
   </g>
   <g id="xtick_7">
    <g id="line2d_10">
     <path d="M 133.840682 91.654333 
L 135.656928 92.180948 
" style="fill:none;stroke:#000000;stroke-linecap:square;stroke-width:0.8;"/>
    </g>
    <g id="text_9">
     <!-- −1 -->
     <g transform="translate(145.286127 96.834718)scale(0.1 -0.1)">
      <use xlink:href="#DejaVuSans-8722"/>
      <use x="83.789062" xlink:href="#DejaVuSans-49"/>
     </g>
    </g>
   </g>
   <g id="xtick_8">
    <g id="line2d_11">
     <path d="M 135.035054 65.290902 
L 136.890981 65.796563 
" style="fill:none;stroke:#000000;stroke-linecap:square;stroke-width:0.8;"/>
    </g>
    <g id="text_10">
     <!-- 0 -->
     <g transform="translate(151.057056 70.567824)scale(0.1 -0.1)">
      <use xlink:href="#DejaVuSans-48"/>
     </g>
    </g>
   </g>
   <g id="xtick_9">
    <g id="line2d_12">
     <path d="M 136.280723 37.795178 
L 138.178101 38.277579 
" style="fill:none;stroke:#000000;stroke-linecap:square;stroke-width:0.8;"/>
    </g>
    <g id="text_11">
     <!-- 1 -->
     <g transform="translate(152.705661 43.179212)scale(0.1 -0.1)">
      <use xlink:href="#DejaVuSans-49"/>
     </g>
    </g>
   </g>
  </g>
  <g id="axes_1">
   <g id="line2d_13">
    <defs>
     <path d="M -3 3 
L 3 -3 
M -3 -3 
L 3 3 
" id="mec7d44c11b" style="stroke:#ff0000;"/>
    </defs>
    <g clip-path="url(#pbc83a4d5b4)">
     <use style="fill:#ff0000;stroke:#ff0000;" x="77.028692" xlink:href="#mec7d44c11b" y="73.313514"/>
    </g>
   </g>
   <g id="Line3DCollection_4">
    <path clip-path="url(#pbc83a4d5b4)" d="M 24.027361 80.414345 
L 25.312033 75.721739 
L 26.606903 71.274451 
L 27.911219 67.075045 
L 29.224216 63.125797 
L 30.545121 59.428688 
L 31.873155 55.985404 
L 33.20753 52.79733 
L 34.547457 49.865555 
L 35.89214 47.190861 
L 37.240784 44.773736 
L 38.592595 42.614362 
L 39.946779 40.712629 
L 41.302545 39.068129 
L 42.659106 37.680164 
L 44.015684 36.547748 
L 45.371506 35.669616 
L 46.725809 35.044225 
L 48.077838 34.669764 
L 49.426852 34.544161 
L 50.772121 34.665088 
L 52.112931 35.029973 
L 53.44858 35.636007 
L 54.778383 36.480155 
L 56.101673 37.559161 
L 57.4178 38.869566 
L 58.726133 40.407711 
L 60.026058 42.169754 
L 61.316986 44.151676 
L 62.598343 46.349295 
L 63.869581 48.758278 
" style="fill:none;stroke:#1f77b4;stroke-width:1.5;"/>
    <path clip-path="url(#pbc83a4d5b4)" d="M 28.622438 88.570966 
L 29.904835 83.890833 
L 31.196518 79.453861 
L 32.496738 75.262601 
L 33.804736 71.31932 
L 35.119745 67.625995 
L 36.440991 64.184309 
L 37.767697 60.995649 
L 39.099079 58.061106 
L 40.434354 55.381472 
L 41.772738 52.957243 
L 43.113446 50.788618 
L 44.455698 48.875502 
L 45.798716 47.217505 
L 47.14173 45.813955 
L 48.483974 44.66389 
L 49.824692 43.766074 
L 51.163137 43.118994 
L 52.498571 42.720874 
L 53.830272 42.569676 
L 55.157528 42.663113 
L 56.479642 42.998651 
L 57.795933 43.573525 
L 59.105736 44.384742 
L 60.408402 45.429096 
L 61.703303 46.703173 
L 62.989828 48.203365 
L 64.267386 49.925879 
L 65.535405 51.866749 
L 66.793337 54.021845 
L 68.040651 56.386888 
" style="fill:none;stroke:#1f77b4;stroke-width:1.5;"/>
    <path clip-path="url(#pbc83a4d5b4)" d="M 33.161986 95.725348 
L 34.443098 91.053859 
L 35.732605 86.623764 
L 37.02976 82.437605 
L 38.33381 78.497645 
L 39.64399 74.805856 
L 40.959533 71.363921 
L 42.279668 68.17323 
L 43.60362 65.234879 
L 44.930614 62.549667 
L 46.259873 60.118099 
L 47.590626 57.940386 
L 48.922102 56.016448 
L 50.253537 54.345913 
L 51.584172 52.928126 
L 52.913255 51.762147 
L 54.240046 50.846764 
L 55.563811 50.18049 
L 56.88383 49.761575 
L 58.199396 49.588011 
L 59.509814 49.657542 
L 60.814405 49.967667 
L 62.112507 50.515655 
L 63.403472 51.298551 
L 64.686671 52.313183 
L 65.961495 53.556177 
L 67.227352 55.023964 
L 68.483671 56.712793 
L 69.729902 58.618739 
L 70.965514 60.737715 
L 72.189999 63.065483 
" style="fill:none;stroke:#1f77b4;stroke-width:1.5;"/>
    <path clip-path="url(#pbc83a4d5b4)" d="M 37.656771 101.89882 
L 38.93758 97.23219 
L 40.225912 92.805565 
L 41.52102 88.621485 
L 42.822152 84.682208 
L 44.128549 80.989708 
L 45.439447 77.54567 
L 46.754081 74.351486 
L 48.071681 71.408256 
L 49.391479 68.716788 
L 50.71271 66.277596 
L 52.034608 64.090902 
L 53.356414 62.156635 
L 54.677374 60.474441 
L 55.996741 59.043677 
L 57.313776 57.863424 
L 58.627751 56.932486 
L 59.937947 56.249397 
L 61.243659 55.812428 
L 62.544194 55.619596 
L 63.838874 55.668666 
L 65.127036 55.957166 
L 66.408034 56.482389 
L 67.681239 57.241408 
L 68.94604 58.23108 
L 70.201846 59.448061 
L 71.448083 60.888812 
L 72.684199 62.549613 
L 73.909663 64.42657 
L 75.123965 66.515628 
L 76.326617 68.812584 
" style="fill:none;stroke:#1f77b4;stroke-width:1.5;"/>
    <path clip-path="url(#pbc83a4d5b4)" d="M 42.117298 107.108073 
L 43.398787 102.44254 
L 44.686938 98.015994 
L 45.981006 93.830978 
L 47.280239 89.88975 
L 48.58388 86.194287 
L 49.891169 82.746275 
L 51.201344 79.547113 
L 52.513641 76.597908 
L 53.827299 73.899472 
L 55.141558 71.452328 
L 56.455661 69.256706 
L 57.768858 67.312549 
L 59.080404 65.61951 
L 60.389562 64.176961 
L 61.695606 62.983995 
L 62.997819 62.03943 
L 64.295495 61.341816 
L 65.587943 60.889439 
L 66.874483 60.680333 
L 68.154453 60.712282 
L 69.427205 60.98283 
L 70.69211 61.48929 
L 71.948554 62.228754 
L 73.195944 63.1981 
L 74.433705 64.394003 
L 75.661283 65.812948 
L 76.878143 67.451234 
L 78.083774 69.304989 
L 79.277683 71.370183 
L 80.459402 73.642634 
" style="fill:none;stroke:#1f77b4;stroke-width:1.5;"/>
    <path clip-path="url(#pbc83a4d5b4)" d="M 46.553895 111.365307 
L 47.837049 106.697111 
L 49.126014 102.267255 
L 50.420044 98.078284 
L 51.718387 94.132461 
L 53.020287 90.431767 
L 54.324987 86.977894 
L 55.631726 83.772248 
L 56.939745 80.81594 
L 58.248288 78.109791 
L 59.5566 75.65433 
L 60.863932 73.449796 
L 62.169541 71.496138 
L 63.47269 69.79302 
L 64.772654 68.339822 
L 66.068713 67.135646 
L 67.360164 66.17932 
L 68.646312 65.469404 
L 69.926478 65.004195 
L 71.199997 64.781736 
L 72.466219 64.799823 
L 73.724512 65.056011 
L 74.97426 65.547625 
L 76.214868 66.271768 
L 77.445756 67.22533 
L 78.666369 68.404999 
L 79.876167 69.807269 
L 81.074635 71.428454 
L 82.261278 73.264696 
L 83.435624 75.311974 
L 84.59722 77.56612 
" style="fill:none;stroke:#1f77b4;stroke-width:1.5;"/>
    <path clip-path="url(#pbc83a4d5b4)" d="M 50.976795 114.678321 
L 52.262607 110.003693 
L 53.553384 105.567121 
L 54.848378 101.371158 
L 56.146836 97.418076 
L 57.448002 93.709863 
L 58.751119 90.248219 
L 60.055429 87.034554 
L 61.360175 84.06999 
L 62.664605 81.355353 
L 63.967969 78.891178 
L 65.269523 76.677712 
L 66.56853 74.71491 
L 67.864262 73.00244 
L 69.156001 71.53969 
L 70.443038 70.325766 
L 71.724677 69.359502 
L 73.000237 68.639463 
L 74.26905 68.16395 
L 75.530461 67.931013 
L 76.783836 67.93845 
L 78.028555 68.18382 
L 79.264018 68.664454 
L 80.489642 69.377457 
L 81.704867 70.319723 
L 82.909149 71.487944 
L 84.101969 72.878617 
L 85.282828 74.488059 
L 86.451247 76.312413 
L 87.606772 78.347665 
L 88.748969 80.589646 
" style="fill:none;stroke:#1f77b4;stroke-width:1.5;"/>
    <path clip-path="url(#pbc83a4d5b4)" d="M 55.39621 117.050566 
L 56.685685 112.365702 
L 57.979281 107.918978 
L 59.276247 103.712957 
L 60.575825 99.749922 
L 61.877261 96.031871 
L 63.179795 92.560514 
L 64.482671 89.337271 
L 65.785134 86.363268 
L 67.086434 83.63934 
L 68.385824 81.166029 
L 69.682566 78.943584 
L 70.975928 76.971967 
L 72.265188 75.250849 
L 73.549635 73.779619 
L 74.828569 72.557386 
L 76.101304 71.582985 
L 77.367168 70.854979 
L 78.625502 70.371672 
L 79.875665 70.131109 
L 81.117035 70.131087 
L 82.349005 70.369163 
L 83.570987 70.842663 
L 84.782416 71.548689 
L 85.982743 72.484131 
L 87.171443 73.645673 
L 88.34801 75.029809 
L 89.511964 76.632848 
L 90.662842 78.450929 
L 91.800208 80.480027 
L 92.923646 82.715969 
" style="fill:none;stroke:#1f77b4;stroke-width:1.5;"/>
    <path clip-path="url(#pbc83a4d5b4)" d="M 59.822415 118.481131 
L 61.116577 113.78218 
L 62.414012 109.32182 
L 63.713964 105.10263 
L 65.015674 101.126907 
L 66.318383 97.396662 
L 67.621332 93.913616 
L 68.923763 90.6792 
L 70.224923 87.694548 
L 71.52406 84.960501 
L 72.820433 82.477608 
L 74.113307 80.246121 
L 75.401953 78.266003 
L 76.685655 76.536926 
L 77.96371 75.058281 
L 79.235424 73.829172 
L 80.500119 72.848431 
L 81.757132 72.114616 
L 83.005815 71.626025 
L 84.245538 71.380695 
L 85.475689 71.376415 
L 86.695675 71.610732 
L 87.904922 72.08096 
L 89.102876 72.784189 
L 90.289005 73.717295 
L 91.462798 74.87695 
L 92.623766 76.259633 
L 93.771443 77.861637 
L 94.905385 79.679084 
L 96.025173 81.707933 
L 97.130408 83.943993 
" style="fill:none;stroke:#1f77b4;stroke-width:1.5;"/>
    <path clip-path="url(#pbc83a4d5b4)" d="M 64.265828 118.964692 
L 65.56572 114.247732 
L 66.868031 109.770188 
L 68.172 105.534659 
L 69.476863 101.54346 
L 70.781857 97.798618 
L 72.086219 94.301868 
L 73.389192 91.05465 
L 74.690019 88.058109 
L 75.987952 85.313094 
L 77.28225 82.820155 
L 78.572179 80.579549 
L 79.857016 78.591239 
L 81.13605 76.854896 
L 82.40858 75.369904 
L 83.673921 74.135363 
L 84.931402 73.150097 
L 86.180368 72.412654 
L 87.420182 71.921318 
L 88.650223 71.674114 
L 89.86989 71.668814 
L 91.078601 71.902949 
L 92.275796 72.373813 
L 93.460935 73.078477 
L 94.633498 74.013795 
L 95.792991 75.176416 
L 96.93894 76.562794 
L 98.070894 78.169198 
L 99.188428 79.991723 
L 100.291137 82.026302 
L 101.378642 84.268717 
" style="fill:none;stroke:#1f77b4;stroke-width:1.5;"/>
    <path clip-path="url(#pbc83a4d5b4)" d="M 68.73709 118.491399 
L 70.043785 113.752419 
L 71.352034 109.254062 
L 72.661068 104.998952 
L 73.970119 100.989425 
L 75.278418 97.227527 
L 76.585199 93.715008 
L 77.889701 90.453322 
L 79.191166 87.443623 
L 80.488846 84.686765 
L 81.782 82.183306 
L 83.069894 79.933502 
L 84.35181 77.937313 
L 85.627038 76.194407 
L 86.894884 74.70416 
L 88.154668 73.465663 
L 89.405725 72.477724 
L 90.647409 71.738878 
L 91.879091 71.247391 
L 93.100159 71.001266 
L 94.310024 70.998254 
L 95.508115 71.23586 
L 96.693884 71.711353 
L 97.866803 72.421773 
L 99.026369 73.363945 
L 100.1721 74.534486 
L 101.303538 75.929815 
L 102.420249 77.546167 
L 103.521822 79.379601 
L 104.607872 81.426013 
L 105.678037 83.681145 
" style="fill:none;stroke:#1f77b4;stroke-width:1.5;"/>
    <path clip-path="url(#pbc83a4d5b4)" d="M 73.247157 117.04671 
L 74.561759 112.281588 
L 75.877036 107.75869 
L 77.192209 103.480668 
L 78.506503 99.449885 
L 79.819144 95.668406 
L 81.12936 92.138001 
L 82.436385 88.860136 
L 83.739461 85.835978 
L 85.037835 83.066389 
L 86.330767 80.551927 
L 87.617525 78.292848 
L 88.89739 76.289111 
L 90.169656 74.540374 
L 91.433633 73.046002 
L 92.688646 71.805071 
L 93.934036 70.816372 
L 95.169164 70.07842 
L 96.393408 69.589455 
L 97.606168 69.347455 
L 98.806862 69.350139 
L 99.994932 69.594981 
L 101.169842 70.079213 
L 102.331077 70.799839 
L 103.478147 71.753644 
L 104.610584 72.937203 
L 105.727947 74.346891 
L 106.829817 75.978899 
L 107.915801 77.829239 
L 108.98553 79.893757 
L 110.03866 82.168148 
" style="fill:none;stroke:#1f77b4;stroke-width:1.5;"/>
    <path clip-path="url(#pbc83a4d5b4)" d="M 77.807394 114.611168 
L 79.131048 109.815649 
L 80.454476 105.264362 
L 81.776891 100.959993 
L 83.097509 96.904933 
L 84.415547 93.101273 
L 85.730229 89.550803 
L 87.040783 86.255005 
L 88.346446 83.215057 
L 89.646465 80.431828 
L 90.940094 77.905879 
L 92.226604 75.637464 
L 93.505275 73.626535 
L 94.775405 71.872739 
L 96.036305 70.375428 
L 97.287305 69.133658 
L 98.527752 68.146197 
L 99.757012 67.411533 
L 100.974473 66.927875 
L 102.179541 66.693166 
L 103.371647 66.70509 
L 104.550242 66.961078 
L 105.714801 67.458319 
L 106.864824 68.193771 
L 107.999832 69.164167 
L 109.119375 70.366033 
L 110.223025 71.79569 
L 111.31038 73.44927 
L 112.381063 75.322729 
L 113.434723 77.411855 
L 114.471036 79.71228 
" style="fill:none;stroke:#1f77b4;stroke-width:1.5;"/>
    <path clip-path="url(#pbc83a4d5b4)" d="M 82.429675 111.160109 
L 83.76357 106.329779 
L 85.096314 101.746114 
L 86.42711 97.41184 
L 87.755162 93.329379 
L 89.07968 89.500851 
L 90.399879 85.928068 
L 91.714983 82.612532 
L 93.024221 79.555431 
L 94.326836 76.757641 
L 95.622083 74.219725 
L 96.909228 71.941935 
L 98.187552 69.924211 
L 99.456354 68.166189 
L 100.714948 66.6672 
L 101.962667 65.426277 
L 103.198863 64.442161 
L 104.422909 63.713303 
L 105.634198 63.237879 
L 106.832147 63.013788 
L 108.016195 63.038667 
L 109.185805 63.309899 
L 110.340462 63.82462 
L 111.47968 64.579731 
L 112.602994 65.571907 
L 113.709968 66.797608 
L 114.800189 68.253092 
L 115.873273 69.934425 
L 116.92886 71.837492 
L 117.966617 73.958009 
L 118.986239 76.291536 
" style="fill:none;stroke:#1f77b4;stroke-width:1.5;"/>
    <path clip-path="url(#pbc83a4d5b4)" d="M 87.126496 106.663294 
L 88.471874 101.793555 
L 89.815146 97.173362 
L 91.155503 92.805481 
L 92.492137 88.692375 
L 93.824248 84.836194 
L 95.151042 81.238775 
L 96.471734 77.90164 
L 97.785549 74.82599 
L 99.091724 72.012708 
L 100.389509 69.462358 
L 101.678169 67.175185 
L 102.956985 65.151119 
L 104.225254 63.389779 
L 105.482292 61.890471 
L 106.727437 60.6522 
L 107.960044 59.673672 
L 109.179492 58.953299 
L 110.385181 58.489211 
L 111.576535 58.279258 
L 112.753004 58.321023 
L 113.914061 58.611829 
L 115.059204 59.148749 
L 116.187957 59.928617 
L 117.299872 60.948038 
L 118.394526 62.203399 
L 119.471524 63.690879 
L 120.530497 65.406466 
L 121.571104 67.345962 
L 122.593031 69.504999 
L 123.59599 71.879053 
" style="fill:none;stroke:#1f77b4;stroke-width:1.5;"/>
    <path clip-path="url(#pbc83a4d5b4)" d="M 91.9111 101.084466 
L 93.269264 96.170507 
L 94.624331 91.509445 
L 95.975477 87.104095 
L 97.321883 82.956961 
L 98.662737 79.07023 
L 99.997233 75.445767 
L 101.324578 72.085114 
L 102.64399 68.989487 
L 103.954699 66.159776 
L 105.25595 63.596543 
L 106.547006 61.300027 
L 107.827144 59.270143 
L 109.095662 57.506488 
L 110.351879 56.008342 
L 111.595131 54.774673 
L 112.82478 53.804147 
L 114.040209 53.09513 
L 115.240825 52.645697 
L 116.426062 52.453641 
L 117.595377 52.516481 
L 118.748254 52.83147 
L 119.884203 53.395609 
L 121.002763 54.205651 
L 122.103498 55.258121 
L 123.186002 56.549319 
L 124.249895 58.075336 
L 125.294828 59.832065 
L 126.320476 61.815214 
L 127.326545 64.020317 
L 128.312769 66.44275 
" style="fill:none;stroke:#1f77b4;stroke-width:1.5;"/>
    <path clip-path="url(#pbc83a4d5b4)" d="M 24.027361 80.414345 
L 26.332525 84.619455 
L 28.622438 88.570966 
L 30.898473 92.271993 
L 33.161986 95.725348 
L 35.414313 98.933547 
L 37.656771 101.89882 
L 39.890668 104.623107 
L 42.117298 107.108073 
L 44.337947 109.355103 
L 46.553895 111.365307 
L 48.766419 113.139524 
L 50.976795 114.678321 
L 53.186298 115.981994 
L 55.39621 117.050566 
L 57.607817 117.883787 
L 59.822415 118.481131 
L 62.041312 118.841795 
L 64.265828 118.964692 
L 66.497301 118.848449 
L 68.73709 118.491399 
L 70.986573 117.891576 
L 73.247157 117.04671 
L 75.520275 115.954211 
L 77.807394 114.611168 
L 80.110014 113.014332 
L 82.429675 111.160109 
L 84.767959 109.04454 
L 87.126496 106.663294 
L 89.506965 104.011647 
L 91.9111 101.084466 
" style="fill:none;stroke:#1f77b4;stroke-width:1.5;"/>
    <path clip-path="url(#pbc83a4d5b4)" d="M 26.606903 71.274451 
L 28.909086 75.49187 
L 31.196518 79.453861 
L 33.470574 83.163551 
L 35.732605 86.623764 
L 37.983944 89.837024 
L 40.225912 92.805565 
L 42.459811 95.531334 
L 44.686938 98.015994 
L 46.908578 100.260932 
L 49.126014 102.267255 
L 51.340524 104.035798 
L 53.553384 105.567121 
L 55.765875 106.86151 
L 57.979281 107.918978 
L 60.194893 108.739262 
L 62.414012 109.32182 
L 64.637949 109.665831 
L 66.868031 109.770188 
L 69.105605 109.633495 
L 71.352034 109.254062 
L 73.608706 108.629894 
L 75.877036 107.75869 
L 78.158467 106.637828 
L 80.454476 105.264362 
L 82.766574 103.635003 
L 85.096314 101.746114 
L 87.44529 99.593694 
L 89.815146 97.173362 
L 92.207576 94.480342 
L 94.624331 91.509445 
" style="fill:none;stroke:#1f77b4;stroke-width:1.5;"/>
    <path clip-path="url(#pbc83a4d5b4)" d="M 29.224216 63.125797 
L 31.521588 67.350987 
L 33.804736 71.31932 
L 36.075027 75.03393 
L 38.33381 78.497645 
L 40.582413 81.712992 
L 42.822152 84.682208 
L 45.05433 87.40724 
L 47.280239 89.88975 
L 49.501164 92.131122 
L 51.718387 94.132461 
L 53.933185 95.894594 
L 56.146836 97.418076 
L 58.360621 98.703185 
L 60.575825 99.749922 
L 62.793742 100.558014 
L 65.015674 101.126907 
L 67.242937 101.455763 
L 69.476863 101.54346 
L 71.7188 101.388585 
L 73.970119 100.989425 
L 76.232213 100.343967 
L 78.506503 99.449885 
L 80.794441 98.304532 
L 83.097509 96.904933 
L 85.417229 95.247772 
L 87.755162 93.329379 
L 90.112913 91.145719 
L 92.492137 88.692375 
L 94.894539 85.964532 
L 97.321883 82.956961 
" style="fill:none;stroke:#1f77b4;stroke-width:1.5;"/>
    <path clip-path="url(#pbc83a4d5b4)" d="M 31.873155 55.985404 
L 34.163913 60.213796 
L 36.440991 64.184309 
L 38.705751 67.900075 
L 40.959533 71.363921 
L 43.203662 74.578375 
L 45.439447 77.54567 
L 47.668187 80.26775 
L 49.891169 82.746275 
L 52.109676 84.982623 
L 54.324987 86.977894 
L 56.538375 88.732911 
L 58.751119 90.248219 
L 60.964497 91.524089 
L 63.179795 92.560514 
L 65.398306 93.357212 
L 67.621332 93.913616 
L 69.850193 94.22888 
L 72.086219 94.301868 
L 74.330764 94.131153 
L 76.585199 93.715008 
L 78.850923 93.051405 
L 81.12936 92.138001 
L 83.421965 90.972131 
L 85.730229 89.550803 
L 88.055678 87.870679 
L 90.399879 85.928068 
L 92.764447 83.718914 
L 95.151042 81.238775 
L 97.56138 78.482812 
L 99.997233 75.445767 
" style="fill:none;stroke:#1f77b4;stroke-width:1.5;"/>
    <path clip-path="url(#pbc83a4d5b4)" d="M 34.547457 49.865555 
L 36.829826 54.092578 
L 39.099079 58.061106 
L 41.356566 61.774266 
L 43.60362 65.234879 
L 45.841558 68.445467 
L 48.071681 71.408256 
L 50.295281 74.125185 
L 52.513641 76.597908 
L 54.728038 78.827795 
L 56.939745 80.81594 
L 59.150033 82.563158 
L 61.360175 84.06999 
L 63.571448 85.336698 
L 65.785134 86.363268 
L 68.002525 87.149409 
L 70.224923 87.694548 
L 72.453643 87.997829 
L 74.690019 88.058109 
L 76.935402 87.873952 
L 79.191166 87.443623 
L 81.45871 86.765082 
L 83.739461 85.835978 
L 86.034875 84.653638 
L 88.346446 83.215057 
L 90.675704 81.516888 
L 93.024221 79.555431 
L 95.393613 77.326615 
L 97.785549 74.82599 
L 100.201748 72.048704 
L 102.64399 68.989487 
" style="fill:none;stroke:#1f77b4;stroke-width:1.5;"/>
    <path clip-path="url(#pbc83a4d5b4)" d="M 37.240784 44.773736 
L 39.513031 48.994841 
L 41.772738 52.957243 
L 44.021244 56.66406 
L 46.259873 60.118099 
L 48.48993 63.321872 
L 50.71271 66.277596 
L 52.929494 68.9872 
L 55.141558 71.452328 
L 57.350171 73.674343 
L 59.5566 75.65433 
L 61.76211 77.393098 
L 63.967969 78.891178 
L 66.175447 80.148829 
L 68.385824 81.166029 
L 70.600387 81.942481 
L 72.820433 82.477608 
L 75.047278 82.770548 
L 77.28225 82.820155 
L 79.5267 82.624987 
L 81.782 82.183306 
L 84.049547 81.493071 
L 86.330767 80.551927 
L 88.627119 79.357198 
L 90.940094 77.905879 
L 93.271225 76.194621 
L 95.622083 74.219725 
L 97.994288 71.977121 
L 100.389509 69.462358 
L 102.809469 66.670587 
L 105.25595 63.596543 
" style="fill:none;stroke:#1f77b4;stroke-width:1.5;"/>
    <path clip-path="url(#pbc83a4d5b4)" d="M 39.946779 40.712629 
L 42.207214 44.923317 
L 44.455698 48.875502 
L 46.693557 52.572281 
L 48.922102 56.016448 
L 51.142627 59.210498 
L 53.356414 62.156635 
L 55.564736 64.856774 
L 57.768858 67.312549 
L 59.97004 69.525311 
L 62.169541 71.496138 
L 64.368617 73.225829 
L 66.56853 74.71491 
L 68.770543 75.96363 
L 70.975928 76.971967 
L 73.185967 77.739618 
L 75.401953 78.266003 
L 77.625194 78.550259 
L 79.857016 78.591239 
L 82.098766 78.387502 
L 84.35181 77.937313 
L 86.617543 77.238633 
L 88.89739 76.289111 
L 91.192803 75.086078 
L 93.505275 73.626535 
L 95.836334 71.907143 
L 98.187552 69.924211 
L 100.560546 67.673682 
L 102.956985 65.151119 
L 105.37859 62.351689 
L 107.827144 59.270143 
" style="fill:none;stroke:#1f77b4;stroke-width:1.5;"/>
    <path clip-path="url(#pbc83a4d5b4)" d="M 42.659106 37.680164 
L 44.906095 41.876011 
L 47.14173 45.813955 
L 49.367324 49.497069 
L 51.584172 52.928126 
L 53.793554 56.1096 
L 55.996741 59.043677 
L 58.194992 61.732258 
L 60.389562 64.176961 
L 62.5817 66.379127 
L 64.772654 68.339822 
L 66.96367 70.059837 
L 69.156001 71.53969 
L 71.350901 72.779626 
L 73.549635 73.779619 
L 75.753476 74.539364 
L 77.96371 75.058281 
L 80.181638 75.335509 
L 82.40858 75.369904 
L 84.645874 75.16003 
L 86.894884 74.70416 
L 89.156997 74.000264 
L 91.433633 73.046002 
L 93.72624 71.838717 
L 96.036305 70.375428 
L 98.365352 68.652813 
L 100.714948 66.6672 
L 103.086707 64.414557 
L 105.482292 61.890471 
L 107.903424 59.090138 
L 110.351879 56.008342 
" style="fill:none;stroke:#1f77b4;stroke-width:1.5;"/>
    <path clip-path="url(#pbc83a4d5b4)" d="M 45.371506 35.669616 
L 47.603474 39.8463 
L 49.824692 43.766074 
L 52.036457 47.43198 
L 54.240046 50.846764 
L 56.436725 54.012878 
L 58.627751 56.932486 
L 60.814369 59.607469 
L 62.997819 62.03943 
L 65.179339 64.229696 
L 67.360164 66.17932 
L 69.54153 67.889085 
L 71.724677 69.359502 
L 73.910851 70.590812 
L 76.101304 71.582985 
L 78.297301 72.335717 
L 80.500119 72.848431 
L 82.711049 73.12027 
L 84.931402 73.150097 
L 87.162509 72.936487 
L 89.405725 72.477724 
L 91.662431 71.771793 
L 93.934036 70.816372 
L 96.221983 69.608827 
L 98.527752 68.146197 
L 100.852858 66.425189 
L 103.198863 64.442161 
L 105.567372 62.193113 
L 107.960044 59.673672 
L 110.378589 56.879073 
L 112.82478 53.804147 
" style="fill:none;stroke:#1f77b4;stroke-width:1.5;"/>
    <path clip-path="url(#pbc83a4d5b4)" d="M 48.077838 34.669764 
L 50.293275 38.823088 
L 52.498571 42.720874 
L 54.695003 46.366132 
L 56.88383 49.761575 
L 59.066302 52.909627 
L 61.243659 55.812428 
L 63.41713 58.471838 
L 65.587943 60.889439 
L 67.757318 63.066545 
L 69.926478 65.004195 
L 72.096646 66.703162 
L 74.26905 68.16395 
L 76.444921 69.386798 
L 78.625502 70.371672 
L 80.812044 71.118272 
L 83.005815 71.626025 
L 85.208094 71.894083 
L 87.420182 71.921318 
L 89.643399 71.70632 
L 91.879091 71.247391 
L 94.128627 70.542535 
L 96.393408 69.589455 
L 98.674867 68.385545 
L 100.974473 66.927875 
L 103.293733 65.213186 
L 105.634198 63.237879 
L 107.997465 60.997995 
L 110.385181 58.489211 
L 112.799047 55.706816 
L 115.240825 52.645697 
" style="fill:none;stroke:#1f77b4;stroke-width:1.5;"/>
    <path clip-path="url(#pbc83a4d5b4)" d="M 50.772121 34.665088 
L 52.969591 38.790998 
L 55.157528 42.663113 
L 57.337188 46.284401 
L 59.509814 49.657542 
L 61.676635 52.784926 
L 63.838874 55.668666 
L 65.997743 58.310597 
L 68.154453 60.712282 
L 70.310209 62.875015 
L 72.466219 64.799823 
L 74.62369 66.487469 
L 76.783836 67.93845 
L 78.947875 69.153 
L 81.117035 70.131087 
L 83.292556 70.872414 
L 85.475689 71.376415 
L 87.667705 71.642253 
L 89.86989 71.668814 
L 92.083552 71.454707 
L 94.310024 70.998254 
L 96.550665 70.297487 
L 98.806862 69.350139 
L 101.080037 68.153637 
L 103.371647 66.70509 
L 105.683187 65.001285 
L 108.016195 63.038667 
L 110.372256 60.813335 
L 112.753004 58.321023 
L 115.160129 55.557085 
L 117.595377 52.516481 
" style="fill:none;stroke:#1f77b4;stroke-width:1.5;"/>
    <path clip-path="url(#pbc83a4d5b4)" d="M 53.44858 35.636007 
L 55.626719 39.730616 
L 57.795933 43.573525 
L 59.957455 47.167658 
L 62.112507 50.515655 
L 64.262299 53.619872 
L 66.408034 56.482389 
L 68.550907 59.105015 
L 70.69211 61.48929 
L 72.832831 63.636489 
L 74.97426 65.547625 
L 77.11759 67.22345 
L 79.264018 68.664454 
L 81.414746 69.870869 
L 83.570987 70.842663 
L 85.733967 71.579546 
L 87.904922 72.08096 
L 90.085107 72.34608 
L 92.275796 72.373813 
L 94.478282 72.162787 
L 96.693884 71.711353 
L 98.923946 71.017572 
L 101.169842 70.079213 
L 103.43298 68.893743 
L 105.714801 67.458319 
L 108.016788 65.769777 
L 110.340462 63.82462 
L 112.687394 61.61901 
L 115.059204 59.148749 
L 117.457563 56.409268 
L 119.884203 53.395609 
" style="fill:none;stroke:#1f77b4;stroke-width:1.5;"/>
    <path clip-path="url(#pbc83a4d5b4)" d="M 56.101673 37.559161 
L 58.2592 41.618763 
L 60.408402 45.429096 
L 62.550493 48.993038 
L 64.686671 52.313183 
L 66.818127 55.391848 
L 68.94604 58.23108 
L 71.071589 60.832659 
L 73.195944 63.1981 
L 75.320276 65.328657 
L 77.445756 67.22533 
L 79.57356 68.888857 
L 81.704867 70.319723 
L 83.840862 71.518157 
L 85.982743 72.484131 
L 88.131716 73.217359 
L 90.289005 73.717295 
L 92.455847 73.983132 
L 94.633498 74.013795 
L 96.823238 73.80794 
L 99.026369 73.363945 
L 101.244219 72.67991 
L 103.478147 71.753644 
L 105.729543 70.58266 
L 107.999832 69.164167 
L 110.290481 67.49506 
L 112.602994 65.571907 
L 114.938924 63.390939 
L 117.299872 60.948038 
L 119.687492 58.23872 
L 122.103498 55.258121 
" style="fill:none;stroke:#1f77b4;stroke-width:1.5;"/>
    <path clip-path="url(#pbc83a4d5b4)" d="M 58.726133 40.407711 
L 60.861845 44.428797 
L 62.989828 48.203365 
L 65.111272 51.734238 
L 67.227352 55.023964 
L 69.339236 58.074819 
L 71.448083 60.888812 
L 73.555048 63.467692 
L 75.661283 65.812948 
L 77.767938 67.925813 
L 79.876167 69.807269 
L 81.987124 71.458044 
L 84.101969 72.878617 
L 86.221872 74.069213 
L 88.34801 75.029809 
L 90.481574 75.760126 
L 92.623766 76.259633 
L 94.775808 76.527539 
L 96.93894 76.562794 
L 99.114422 76.364081 
L 101.303538 75.929815 
L 103.5076 75.258133 
L 105.727947 74.346891 
L 107.965953 73.193655 
L 110.223025 71.79569 
L 112.500608 70.149955 
L 114.800189 68.253092 
L 117.123301 66.101411 
L 119.471524 63.690879 
L 121.846492 61.017108 
L 124.249895 58.075336 
" style="fill:none;stroke:#1f77b4;stroke-width:1.5;"/>
    <path clip-path="url(#pbc83a4d5b4)" d="M 61.316986 44.151676 
L 63.429766 48.130948 
L 65.535405 51.866749 
L 67.635066 55.361847 
L 69.729902 58.618739 
L 71.821055 61.639656 
L 73.909663 64.42657 
L 75.99686 66.981193 
L 78.083774 69.304989 
L 80.171537 71.399169 
L 82.261278 73.264696 
L 84.354135 74.902287 
L 86.451247 76.312413 
L 88.553763 77.495301 
L 90.662842 78.450929 
L 92.779654 79.179029 
L 94.905385 79.679084 
L 97.041236 79.950323 
L 99.188428 79.991723 
L 101.348201 79.801998 
L 103.521822 79.379601 
L 105.710582 78.722713 
L 107.915801 77.829239 
L 110.138832 76.696801 
L 112.381063 75.322729 
L 114.643917 73.704053 
L 116.92886 71.837492 
L 119.237403 69.719441 
L 121.571104 67.345962 
L 123.931573 64.712769 
L 126.320476 61.815214 
" style="fill:none;stroke:#1f77b4;stroke-width:1.5;"/>
    <path clip-path="url(#pbc83a4d5b4)" d="M 63.869581 48.758278 
L 65.958399 52.692656 
L 68.040651 56.386888 
L 70.117475 59.843683 
L 72.189999 63.065483 
L 74.259342 66.054474 
L 76.326617 68.812584 
L 78.392935 71.341493 
L 80.459402 73.642634 
L 82.527127 75.717194 
L 84.59722 77.56612 
L 86.670794 79.190115 
L 88.748969 80.589646 
L 90.832874 81.764936 
L 92.923646 82.715969 
L 95.022436 83.442489 
L 97.130408 83.943993 
L 99.248743 84.219735 
L 101.378642 84.268717 
L 103.521325 84.08969 
L 105.678037 83.681145 
L 107.850049 83.041311 
L 110.03866 82.168148 
L 112.245201 81.059339 
L 114.471036 79.71228 
L 116.717568 78.124079 
L 118.986239 76.291536 
L 121.278535 74.211139 
L 123.59599 71.879053 
L 125.940188 69.291099 
L 128.312769 66.44275 
" style="fill:none;stroke:#1f77b4;stroke-width:1.5;"/>
   </g>
  </g>
 </g>
 <defs>
  <clipPath id="pbc83a4d5b4">
   <rect height="135.9" width="135.9" x="7.242206" y="7.2"/>
  </clipPath>
 </defs>
</svg>
