<?xml version="1.0" encoding="utf-8" standalone="no"?>
<!DOCTYPE svg PUBLIC "-//W3C//DTD SVG 1.1//EN"
  "http://www.w3.org/Graphics/SVG/1.1/DTD/svg11.dtd">
<!-- Created with matplotlib (https://matplotlib.org/) -->
<svg height="180.65625pt" version="1.1" viewBox="0 0 245.120313 180.65625" width="245.120313pt" xmlns="http://www.w3.org/2000/svg" xmlns:xlink="http://www.w3.org/1999/xlink">
 <metadata>
  <rdf:RDF xmlns:cc="http://creativecommons.org/ns#" xmlns:dc="http://purl.org/dc/elements/1.1/" xmlns:rdf="http://www.w3.org/1999/02/22-rdf-syntax-ns#">
   <cc:Work>
    <dc:type rdf:resource="http://purl.org/dc/dcmitype/StillImage"/>
    <dc:date>2021-08-15T18:59:03.391469</dc:date>
    <dc:format>image/svg+xml</dc:format>
    <dc:creator>
     <cc:Agent>
      <dc:title>Matplotlib v3.3.4, https://matplotlib.org/</dc:title>
     </cc:Agent>
    </dc:creator>
   </cc:Work>
  </rdf:RDF>
 </metadata>
 <defs>
  <style type="text/css">*{stroke-linecap:butt;stroke-linejoin:round;}</style>
 </defs>
 <g id="figure_1">
  <g id="patch_1">
   <path d="M 0 180.65625 
L 245.120313 180.65625 
L 245.120313 0 
L 0 0 
z
" style="fill:none;"/>
  </g>
  <g id="axes_1">
   <g id="patch_2">
    <path d="M 42.620312 143.1 
L 237.920313 143.1 
L 237.920313 7.2 
L 42.620312 7.2 
z
" style="fill:#ffffff;"/>
   </g>
   <g id="matplotlib.axis_1">
    <g id="xtick_1">
     <g id="line2d_1">
      <defs>
       <path d="M 0 0 
L 0 3.5 
" id="m49c146fc9e" style="stroke:#000000;stroke-width:0.8;"/>
      </defs>
      <g>
       <use style="stroke:#000000;stroke-width:0.8;" x="88.39375" xlink:href="#m49c146fc9e" y="143.1"/>
      </g>
     </g>
     <g id="text_1">
      <!-- −4 -->
      <g transform="translate(81.022656 157.698438)scale(0.1 -0.1)">
       <defs>
        <path d="M 10.59375 35.5 
L 73.1875 35.5 
L 73.1875 27.203125 
L 10.59375 27.203125 
z
" id="DejaVuSans-8722"/>
        <path d="M 37.796875 64.3125 
L 12.890625 25.390625 
L 37.796875 25.390625 
z
M 35.203125 72.90625 
L 47.609375 72.90625 
L 47.609375 25.390625 
L 58.015625 25.390625 
L 58.015625 17.1875 
L 47.609375 17.1875 
L 47.609375 0 
L 37.796875 0 
L 37.796875 17.1875 
L 4.890625 17.1875 
L 4.890625 26.703125 
z
" id="DejaVuSans-52"/>
       </defs>
       <use xlink:href="#DejaVuSans-8722"/>
       <use x="83.789062" xlink:href="#DejaVuSans-52"/>
      </g>
     </g>
    </g>
    <g id="xtick_2">
     <g id="line2d_2">
      <g>
       <use style="stroke:#000000;stroke-width:0.8;" x="149.425" xlink:href="#m49c146fc9e" y="143.1"/>
      </g>
     </g>
     <g id="text_2">
      <!-- −2 -->
      <g transform="translate(142.053906 157.698438)scale(0.1 -0.1)">
       <defs>
        <path d="M 19.1875 8.296875 
L 53.609375 8.296875 
L 53.609375 0 
L 7.328125 0 
L 7.328125 8.296875 
Q 12.9375 14.109375 22.625 23.890625 
Q 32.328125 33.6875 34.8125 36.53125 
Q 39.546875 41.84375 41.421875 45.53125 
Q 43.3125 49.21875 43.3125 52.78125 
Q 43.3125 58.59375 39.234375 62.25 
Q 35.15625 65.921875 28.609375 65.921875 
Q 23.96875 65.921875 18.8125 64.3125 
Q 13.671875 62.703125 7.8125 59.421875 
L 7.8125 69.390625 
Q 13.765625 71.78125 18.9375 73 
Q 24.125 74.21875 28.421875 74.21875 
Q 39.75 74.21875 46.484375 68.546875 
Q 53.21875 62.890625 53.21875 53.421875 
Q 53.21875 48.921875 51.53125 44.890625 
Q 49.859375 40.875 45.40625 35.40625 
Q 44.1875 33.984375 37.640625 27.21875 
Q 31.109375 20.453125 19.1875 8.296875 
z
" id="DejaVuSans-50"/>
       </defs>
       <use xlink:href="#DejaVuSans-8722"/>
       <use x="83.789062" xlink:href="#DejaVuSans-50"/>
      </g>
     </g>
    </g>
    <g id="xtick_3">
     <g id="line2d_3">
      <g>
       <use style="stroke:#000000;stroke-width:0.8;" x="210.45625" xlink:href="#m49c146fc9e" y="143.1"/>
      </g>
     </g>
     <g id="text_3">
      <!-- 0 -->
      <g transform="translate(207.275 157.698438)scale(0.1 -0.1)">
       <defs>
        <path d="M 31.78125 66.40625 
Q 24.171875 66.40625 20.328125 58.90625 
Q 16.5 51.421875 16.5 36.375 
Q 16.5 21.390625 20.328125 13.890625 
Q 24.171875 6.390625 31.78125 6.390625 
Q 39.453125 6.390625 43.28125 13.890625 
Q 47.125 21.390625 47.125 36.375 
Q 47.125 51.421875 43.28125 58.90625 
Q 39.453125 66.40625 31.78125 66.40625 
z
M 31.78125 74.21875 
Q 44.046875 74.21875 50.515625 64.515625 
Q 56.984375 54.828125 56.984375 36.375 
Q 56.984375 17.96875 50.515625 8.265625 
Q 44.046875 -1.421875 31.78125 -1.421875 
Q 19.53125 -1.421875 13.0625 8.265625 
Q 6.59375 17.96875 6.59375 36.375 
Q 6.59375 54.828125 13.0625 64.515625 
Q 19.53125 74.21875 31.78125 74.21875 
z
" id="DejaVuSans-48"/>
       </defs>
       <use xlink:href="#DejaVuSans-48"/>
      </g>
     </g>
    </g>
    <g id="text_4">
     <!-- x1 -->
     <g transform="translate(134.129687 171.376563)scale(0.1 -0.1)">
      <defs>
       <path d="M 54.890625 54.6875 
L 35.109375 28.078125 
L 55.90625 0 
L 45.3125 0 
L 29.390625 21.484375 
L 13.484375 0 
L 2.875 0 
L 24.125 28.609375 
L 4.6875 54.6875 
L 15.28125 54.6875 
L 29.78125 35.203125 
L 44.28125 54.6875 
z
" id="DejaVuSans-120"/>
       <path d="M 12.40625 8.296875 
L 28.515625 8.296875 
L 28.515625 63.921875 
L 10.984375 60.40625 
L 10.984375 69.390625 
L 28.421875 72.90625 
L 38.28125 72.90625 
L 38.28125 8.296875 
L 54.390625 8.296875 
L 54.390625 0 
L 12.40625 0 
z
" id="DejaVuSans-49"/>
      </defs>
      <use xlink:href="#DejaVuSans-120"/>
      <use x="59.179688" xlink:href="#DejaVuSans-49"/>
     </g>
    </g>
   </g>
   <g id="matplotlib.axis_2">
    <g id="ytick_1">
     <g id="line2d_4">
      <defs>
       <path d="M 0 0 
L -3.5 0 
" id="ma127133441" style="stroke:#000000;stroke-width:0.8;"/>
      </defs>
      <g>
       <use style="stroke:#000000;stroke-width:0.8;" x="42.620312" xlink:href="#ma127133441" y="120.784729"/>
      </g>
     </g>
     <g id="text_5">
      <!-- −2 -->
      <g transform="translate(20.878125 124.583948)scale(0.1 -0.1)">
       <use xlink:href="#DejaVuSans-8722"/>
       <use x="83.789062" xlink:href="#DejaVuSans-50"/>
      </g>
     </g>
    </g>
    <g id="ytick_2">
     <g id="line2d_5">
      <g>
       <use style="stroke:#000000;stroke-width:0.8;" x="42.620312" xlink:href="#ma127133441" y="76.154187"/>
      </g>
     </g>
     <g id="text_6">
      <!-- 0 -->
      <g transform="translate(29.257812 79.953406)scale(0.1 -0.1)">
       <use xlink:href="#DejaVuSans-48"/>
      </g>
     </g>
    </g>
    <g id="ytick_3">
     <g id="line2d_6">
      <g>
       <use style="stroke:#000000;stroke-width:0.8;" x="42.620312" xlink:href="#ma127133441" y="31.523645"/>
      </g>
     </g>
     <g id="text_7">
      <!-- 2 -->
      <g transform="translate(29.257812 35.322864)scale(0.1 -0.1)">
       <use xlink:href="#DejaVuSans-50"/>
      </g>
     </g>
    </g>
    <g id="text_8">
     <!-- x2 -->
     <g transform="translate(14.798437 81.290625)rotate(-90)scale(0.1 -0.1)">
      <use xlink:href="#DejaVuSans-120"/>
      <use x="59.179688" xlink:href="#DejaVuSans-50"/>
     </g>
    </g>
   </g>
   <g id="LineCollection_1"/>
   <g id="LineCollection_2">
    <path clip-path="url(#p24b9a53dce)" d="M 237.920313 118.462735 
L 237.381801 118.553202 
L 234.86875 118.953732 
L 231.817188 119.382872 
L 228.765625 119.754793 
L 225.714063 120.069496 
L 222.6625 120.32698 
L 219.610938 120.527245 
L 216.559375 120.670292 
L 213.507813 120.75612 
L 210.45625 120.784729 
L 210.45625 120.784729 
L 210.45625 120.784729 
L 207.404688 120.75612 
L 204.353125 120.670292 
L 201.301563 120.527245 
L 198.25 120.32698 
L 195.198438 120.069496 
L 192.146875 119.754793 
L 189.095313 119.382872 
L 186.04375 118.953732 
L 183.530699 118.553202 
L 182.992188 118.462735 
L 179.940625 117.889775 
L 176.889063 117.256504 
L 173.8375 116.562921 
L 172.861 116.321675 
L 170.785938 115.779733 
L 167.734375 114.919001 
L 164.998491 114.090148 
L 164.682813 113.988715 
L 161.63125 112.940573 
L 158.672159 111.858621 
L 158.579688 111.822628 
L 155.528125 110.562895 
L 153.383784 109.627094 
L 152.476563 109.203873 
L 149.425 107.703363 
L 148.829573 107.395567 
L 146.373438 106.031856 
L 144.88314 105.164039 
L 143.321875 104.182167 
L 141.423125 102.932512 
L 140.270313 102.107818 
L 138.387434 100.700985 
L 137.21875 99.744616 
L 135.724107 98.469458 
L 134.167188 97.001348 
L 133.389338 96.237931 
L 131.354963 94.006404 
L 131.115625 93.708867 
L 129.618632 91.774877 
L 128.121639 89.54335 
L 128.064063 89.441917 
L 126.89892 87.311823 
L 125.900227 85.080296 
L 125.123466 82.848768 
L 125.0125 82.402463 
L 124.584211 80.617241 
L 124.262993 78.385714 
L 124.155921 76.154187 
L 124.262993 73.92266 
L 124.584211 71.691133 
L 125.0125 69.905911 
L 125.123466 69.459606 
L 125.900227 67.228079 
L 126.89892 64.996552 
L 128.064063 62.866458 
L 128.121639 62.765025 
L 129.618632 60.533498 
L 131.115625 58.599507 
L 131.354963 58.30197 
L 133.389338 56.070443 
" style="fill:none;stroke:#1f77b4;stroke-width:1.5;"/>
   </g>
   <g id="LineCollection_3">
    <path clip-path="url(#p24b9a53dce)" d="M 237.920313 137.642902 
L 234.86875 137.987774 
L 231.817188 138.292073 
L 228.765625 138.555799 
L 227.655966 138.636946 
L 225.714063 138.773969 
L 222.6625 138.950143 
L 219.610938 139.087166 
L 216.559375 139.18504 
L 213.507813 139.243765 
L 210.45625 139.263339 
L 207.404688 139.243765 
L 204.353125 139.18504 
L 201.301563 139.087166 
L 198.25 138.950143 
L 195.198438 138.773969 
L 193.256534 138.636946 
L 192.146875 138.555799 
L 189.095313 138.292073 
L 186.04375 137.987774 
L 182.992188 137.642902 
L 179.940625 137.257456 
L 176.889063 136.831438 
L 174.102853 136.405419 
L 173.8375 136.363314 
L 170.785938 135.837011 
L 167.734375 135.268603 
L 164.682813 134.658091 
L 162.41875 134.173892 
L 161.63125 133.99887 
L 158.579688 133.276905 
L 155.528125 132.511185 
L 153.383784 131.942365 
L 152.476563 131.691887 
L 149.425 130.80383 
L 146.373438 129.870232 
L 145.876672 129.710837 
L 143.321875 128.85621 
L 140.270313 127.787926 
L 139.426263 127.47931 
L 137.21875 126.636289 
L 134.167188 125.421346 
L 133.748346 125.247783 
L 131.115625 124.106072 
L 128.697406 123.016256 
L 128.064063 122.716905 
L 125.0125 121.220149 
L 124.155921 120.784729 
L 121.960938 119.611747 
L 120.047246 118.553202 
L 118.909375 117.889775 
L 116.308043 116.321675 
L 115.857813 116.034764 
L 112.903125 114.090148 
L 112.80625 114.022526 
L 109.801635 111.858621 
L 109.754688 111.822628 
L 106.976399 109.627094 
L 106.703125 109.396246 
L 104.403397 107.395567 
L 103.651563 106.693049 
L 102.061312 105.164039 
L 100.6 103.646601 
L 99.931164 102.932512 
L 98.008262 100.700985 
L 97.548438 100.116538 
L 96.287125 98.469458 
L 94.741 96.237931 
L 94.496875 95.844132 
L 93.387216 94.006404 
L 92.198295 91.774877 
L 91.445313 90.144146 
L 91.174921 89.54335 
L 90.325119 87.311823 
L 89.629826 85.080296 
L 89.089043 82.848768 
L 88.702769 80.617241 
L 88.471005 78.385714 
L 88.39375 76.154187 
L 88.471005 73.92266 
L 88.702769 71.691133 
L 89.089043 69.459606 
L 89.629826 67.228079 
L 90.325119 64.996552 
L 91.174921 62.765025 
L 91.445313 62.164229 
L 92.198295 60.533498 
L 93.387216 58.30197 
L 94.496875 56.464242 
L 94.741 56.070443 
" style="fill:none;stroke:#1f77b4;stroke-width:1.5;"/>
   </g>
   <g id="LineCollection_4">
    <path clip-path="url(#p24b9a53dce)" d="M 135.724107 143.1 
L 134.167188 142.627219 
L 131.115625 141.662745 
L 128.697406 140.868473 
L 128.064063 140.65315 
L 125.0125 139.576536 
L 122.442763 138.636946 
L 121.960938 138.454366 
L 118.909375 137.257456 
L 116.808299 136.405419 
L 115.857813 136.005428 
L 112.80625 134.679143 
L 111.679519 134.173892 
L 109.754688 133.276905 
L 106.976399 131.942365 
L 106.703125 131.80574 
L 103.651563 130.234563 
L 102.663028 129.710837 
L 100.6 128.571334 
L 98.677098 127.47931 
L 97.548438 126.809852 
L 94.985125 125.247783 
L 94.496875 124.936407 
L 91.564205 123.016256 
L 91.445313 122.934615 
L 88.39375 120.784729 
L 88.39375 120.784729 
L 85.455208 118.553202 
L 85.342188 118.462735 
L 82.731815 116.321675 
L 82.290625 115.939127 
L 80.208382 114.090148 
L 79.239063 113.17725 
L 77.871121 111.858621 
L 76.1875 110.130987 
L 75.707479 109.627094 
L 73.71882 107.395567 
L 73.135938 106.693049 
L 71.895192 105.164039 
L 70.21851 102.932512 
L 70.084375 102.738466 
L 68.70625 100.700985 
L 67.328125 98.469458 
L 67.032813 97.940939 
L 66.101283 96.237931 
L 65.009145 94.006404 
L 64.045493 91.774877 
L 63.98125 91.603221 
L 63.226224 89.54335 
L 62.534117 87.311823 
L 61.967848 85.080296 
L 61.527416 82.848768 
L 61.212822 80.617241 
L 61.024066 78.385714 
L 60.961147 76.154187 
L 61.024066 73.92266 
L 61.212822 71.691133 
L 61.527416 69.459606 
L 61.967848 67.228079 
L 62.534117 64.996552 
L 63.226224 62.765025 
L 63.98125 60.705153 
L 64.045493 60.533498 
L 65.009145 58.30197 
L 66.101283 56.070443 
" style="fill:none;stroke:#1f77b4;stroke-width:1.5;"/>
   </g>
   <g id="LineCollection_5">
    <path clip-path="url(#p24b9a53dce)" d="M 96.287125 143.1 
L 94.496875 142.267905 
L 91.564205 140.868473 
L 91.445313 140.809749 
L 88.39375 139.263339 
L 87.188194 138.636946 
L 85.342188 137.642902 
L 83.099473 136.405419 
L 82.290625 135.942272 
L 79.274963 134.173892 
L 79.239063 134.152014 
L 76.1875 132.248653 
L 75.707479 131.942365 
L 73.135938 130.234563 
L 72.364663 129.710837 
L 70.084375 128.096541 
L 69.23125 127.47931 
L 67.032813 125.818062 
L 66.294013 125.247783 
L 63.98125 123.379528 
L 63.540818 123.016256 
L 60.961147 120.784729 
L 60.929688 120.75612 
L 58.55625 118.553202 
L 57.878125 117.889775 
L 56.307024 116.321675 
L 54.826563 114.759606 
L 54.204399 114.090148 
L 52.249029 111.858621 
L 51.775 111.282743 
L 50.438125 109.627094 
L 48.7525 107.395567 
L 48.723438 107.354242 
L 47.211916 105.164039 
L 45.785952 102.932512 
L 45.671875 102.738466 
L 44.496044 100.700985 
L 43.320212 98.469458 
L 42.620313 97.001348 
" style="fill:none;stroke:#1f77b4;stroke-width:1.5;"/>
   </g>
   <g id="LineCollection_6">
    <path clip-path="url(#p24b9a53dce)" d="M 67.328125 143.1 
L 67.032813 142.929799 
L 63.98125 141.13323 
L 63.540818 140.868473 
L 60.929688 139.243765 
L 59.974148 138.636946 
L 57.878125 137.257456 
L 56.609158 136.405419 
L 54.826563 135.163342 
L 53.434102 134.173892 
L 51.775 132.948739 
L 50.438125 131.942365 
L 48.723438 130.598894 
L 47.611186 129.710837 
L 45.671875 128.096541 
L 44.943979 127.47931 
L 42.620313 125.421346 
" style="fill:none;stroke:#1f77b4;stroke-width:1.5;"/>
   </g>
   <g id="LineCollection_7">
    <path clip-path="url(#p24b9a53dce)" d="M 43.320212 143.1 
L 42.620313 142.627219 
" style="fill:none;stroke:#1f77b4;stroke-width:1.5;"/>
   </g>
   <g id="LineCollection_8"/>
   <g id="line2d_7">
    <path clip-path="url(#p24b9a53dce)" d="M 57.878125 120.784729 
L 76.1875 13.671429 
L 101.454438 110.073399 
L 127.168124 76.868276 
L 150.019542 58.551901 
L 168.697656 91.6392 
L 183.047744 71.018819 
L 193.511809 73.033513 
L 200.777175 81.530479 
L 205.571346 72.875862 
L 208.554621 76.416534 
L 210.274453 77.557238 
L 211.156185 74.760268 
L 211.513059 76.707189 
L 211.564679 76.353445 
L 211.457477 75.698354 
L 211.283729 76.464808 
L 211.097558 76.102545 
L 210.927515 76.045355 
L 210.785942 76.277957 
L 210.675592 76.09721 
" style="fill:none;stroke:#ff7f0e;stroke-linecap:square;stroke-width:1.5;"/>
    <defs>
     <path d="M 0 3 
C 0.795609 3 1.55874 2.683901 2.12132 2.12132 
C 2.683901 1.55874 3 0.795609 3 0 
C 3 -0.795609 2.683901 -1.55874 2.12132 -2.12132 
C 1.55874 -2.683901 0.795609 -3 0 -3 
C -0.795609 -3 -1.55874 -2.683901 -2.12132 -2.12132 
C -2.683901 -1.55874 -3 -0.795609 -3 0 
C -3 0.795609 -2.683901 1.55874 -2.12132 2.12132 
C -1.55874 2.683901 -0.795609 3 0 3 
z
" id="md46b23333d" style="stroke:#ff7f0e;"/>
    </defs>
    <g clip-path="url(#p24b9a53dce)">
     <use style="fill:#ff7f0e;stroke:#ff7f0e;" x="57.878125" xlink:href="#md46b23333d" y="120.784729"/>
     <use style="fill:#ff7f0e;stroke:#ff7f0e;" x="76.1875" xlink:href="#md46b23333d" y="13.671429"/>
     <use style="fill:#ff7f0e;stroke:#ff7f0e;" x="101.454438" xlink:href="#md46b23333d" y="110.073399"/>
     <use style="fill:#ff7f0e;stroke:#ff7f0e;" x="127.168124" xlink:href="#md46b23333d" y="76.868276"/>
     <use style="fill:#ff7f0e;stroke:#ff7f0e;" x="150.019542" xlink:href="#md46b23333d" y="58.551901"/>
     <use style="fill:#ff7f0e;stroke:#ff7f0e;" x="168.697656" xlink:href="#md46b23333d" y="91.6392"/>
     <use style="fill:#ff7f0e;stroke:#ff7f0e;" x="183.047744" xlink:href="#md46b23333d" y="71.018819"/>
     <use style="fill:#ff7f0e;stroke:#ff7f0e;" x="193.511809" xlink:href="#md46b23333d" y="73.033513"/>
     <use style="fill:#ff7f0e;stroke:#ff7f0e;" x="200.777175" xlink:href="#md46b23333d" y="81.530479"/>
     <use style="fill:#ff7f0e;stroke:#ff7f0e;" x="205.571346" xlink:href="#md46b23333d" y="72.875862"/>
     <use style="fill:#ff7f0e;stroke:#ff7f0e;" x="208.554621" xlink:href="#md46b23333d" y="76.416534"/>
     <use style="fill:#ff7f0e;stroke:#ff7f0e;" x="210.274453" xlink:href="#md46b23333d" y="77.557238"/>
     <use style="fill:#ff7f0e;stroke:#ff7f0e;" x="211.156185" xlink:href="#md46b23333d" y="74.760268"/>
     <use style="fill:#ff7f0e;stroke:#ff7f0e;" x="211.513059" xlink:href="#md46b23333d" y="76.707189"/>
     <use style="fill:#ff7f0e;stroke:#ff7f0e;" x="211.564679" xlink:href="#md46b23333d" y="76.353445"/>
     <use style="fill:#ff7f0e;stroke:#ff7f0e;" x="211.457477" xlink:href="#md46b23333d" y="75.698354"/>
     <use style="fill:#ff7f0e;stroke:#ff7f0e;" x="211.283729" xlink:href="#md46b23333d" y="76.464808"/>
     <use style="fill:#ff7f0e;stroke:#ff7f0e;" x="211.097558" xlink:href="#md46b23333d" y="76.102545"/>
     <use style="fill:#ff7f0e;stroke:#ff7f0e;" x="210.927515" xlink:href="#md46b23333d" y="76.045355"/>
     <use style="fill:#ff7f0e;stroke:#ff7f0e;" x="210.785942" xlink:href="#md46b23333d" y="76.277957"/>
     <use style="fill:#ff7f0e;stroke:#ff7f0e;" x="210.675592" xlink:href="#md46b23333d" y="76.09721"/>
    </g>
   </g>
   <g id="patch_3">
    <path d="M 42.620312 143.1 
L 42.620312 7.2 
" style="fill:none;stroke:#000000;stroke-linecap:square;stroke-linejoin:miter;stroke-width:0.8;"/>
   </g>
   <g id="patch_4">
    <path d="M 237.920313 143.1 
L 237.920313 7.2 
" style="fill:none;stroke:#000000;stroke-linecap:square;stroke-linejoin:miter;stroke-width:0.8;"/>
   </g>
   <g id="patch_5">
    <path d="M 42.620313 143.1 
L 237.920313 143.1 
" style="fill:none;stroke:#000000;stroke-linecap:square;stroke-linejoin:miter;stroke-width:0.8;"/>
   </g>
   <g id="patch_6">
    <path d="M 42.620313 7.2 
L 237.920313 7.2 
" style="fill:none;stroke:#000000;stroke-linecap:square;stroke-linejoin:miter;stroke-width:0.8;"/>
   </g>
  </g>
 </g>
 <defs>
  <clipPath id="p24b9a53dce">
   <rect height="135.9" width="195.3" x="42.620312" y="7.2"/>
  </clipPath>
 </defs>
</svg>
