<?xml version="1.0" encoding="utf-8" standalone="no"?>
<!DOCTYPE svg PUBLIC "-//W3C//DTD SVG 1.1//EN"
  "http://www.w3.org/Graphics/SVG/1.1/DTD/svg11.dtd">
<!-- Created with matplotlib (https://matplotlib.org/) -->
<svg height="180.65625pt" version="1.1" viewBox="0 0 245.120313 180.65625" width="245.120313pt" xmlns="http://www.w3.org/2000/svg" xmlns:xlink="http://www.w3.org/1999/xlink">
 <metadata>
  <rdf:RDF xmlns:cc="http://creativecommons.org/ns#" xmlns:dc="http://purl.org/dc/elements/1.1/" xmlns:rdf="http://www.w3.org/1999/02/22-rdf-syntax-ns#">
   <cc:Work>
    <dc:type rdf:resource="http://purl.org/dc/dcmitype/StillImage"/>
    <dc:date>2021-08-15T18:55:34.950454</dc:date>
    <dc:format>image/svg+xml</dc:format>
    <dc:creator>
     <cc:Agent>
      <dc:title>Matplotlib v3.3.4, https://matplotlib.org/</dc:title>
     </cc:Agent>
    </dc:creator>
   </cc:Work>
  </rdf:RDF>
 </metadata>
 <defs>
  <style type="text/css">*{stroke-linecap:butt;stroke-linejoin:round;}</style>
 </defs>
 <g id="figure_1">
  <g id="patch_1">
   <path d="M 0 180.65625 
L 245.120313 180.65625 
L 245.120313 0 
L 0 0 
z
" style="fill:none;"/>
  </g>
  <g id="axes_1">
   <g id="patch_2">
    <path d="M 42.620312 143.1 
L 237.920313 143.1 
L 237.920313 7.2 
L 42.620312 7.2 
z
" style="fill:#ffffff;"/>
   </g>
   <g id="matplotlib.axis_1">
    <g id="xtick_1">
     <g id="line2d_1">
      <defs>
       <path d="M 0 0 
L 0 3.5 
" id="mfb858b2ce8" style="stroke:#000000;stroke-width:0.8;"/>
      </defs>
      <g>
       <use style="stroke:#000000;stroke-width:0.8;" x="88.39375" xlink:href="#mfb858b2ce8" y="143.1"/>
      </g>
     </g>
     <g id="text_1">
      <!-- −4 -->
      <g transform="translate(81.022656 157.698438)scale(0.1 -0.1)">
       <defs>
        <path d="M 10.59375 35.5 
L 73.1875 35.5 
L 73.1875 27.203125 
L 10.59375 27.203125 
z
" id="DejaVuSans-8722"/>
        <path d="M 37.796875 64.3125 
L 12.890625 25.390625 
L 37.796875 25.390625 
z
M 35.203125 72.90625 
L 47.609375 72.90625 
L 47.609375 25.390625 
L 58.015625 25.390625 
L 58.015625 17.1875 
L 47.609375 17.1875 
L 47.609375 0 
L 37.796875 0 
L 37.796875 17.1875 
L 4.890625 17.1875 
L 4.890625 26.703125 
z
" id="DejaVuSans-52"/>
       </defs>
       <use xlink:href="#DejaVuSans-8722"/>
       <use x="83.789062" xlink:href="#DejaVuSans-52"/>
      </g>
     </g>
    </g>
    <g id="xtick_2">
     <g id="line2d_2">
      <g>
       <use style="stroke:#000000;stroke-width:0.8;" x="149.425" xlink:href="#mfb858b2ce8" y="143.1"/>
      </g>
     </g>
     <g id="text_2">
      <!-- −2 -->
      <g transform="translate(142.053906 157.698438)scale(0.1 -0.1)">
       <defs>
        <path d="M 19.1875 8.296875 
L 53.609375 8.296875 
L 53.609375 0 
L 7.328125 0 
L 7.328125 8.296875 
Q 12.9375 14.109375 22.625 23.890625 
Q 32.328125 33.6875 34.8125 36.53125 
Q 39.546875 41.84375 41.421875 45.53125 
Q 43.3125 49.21875 43.3125 52.78125 
Q 43.3125 58.59375 39.234375 62.25 
Q 35.15625 65.921875 28.609375 65.921875 
Q 23.96875 65.921875 18.8125 64.3125 
Q 13.671875 62.703125 7.8125 59.421875 
L 7.8125 69.390625 
Q 13.765625 71.78125 18.9375 73 
Q 24.125 74.21875 28.421875 74.21875 
Q 39.75 74.21875 46.484375 68.546875 
Q 53.21875 62.890625 53.21875 53.421875 
Q 53.21875 48.921875 51.53125 44.890625 
Q 49.859375 40.875 45.40625 35.40625 
Q 44.1875 33.984375 37.640625 27.21875 
Q 31.109375 20.453125 19.1875 8.296875 
z
" id="DejaVuSans-50"/>
       </defs>
       <use xlink:href="#DejaVuSans-8722"/>
       <use x="83.789062" xlink:href="#DejaVuSans-50"/>
      </g>
     </g>
    </g>
    <g id="xtick_3">
     <g id="line2d_3">
      <g>
       <use style="stroke:#000000;stroke-width:0.8;" x="210.45625" xlink:href="#mfb858b2ce8" y="143.1"/>
      </g>
     </g>
     <g id="text_3">
      <!-- 0 -->
      <g transform="translate(207.275 157.698438)scale(0.1 -0.1)">
       <defs>
        <path d="M 31.78125 66.40625 
Q 24.171875 66.40625 20.328125 58.90625 
Q 16.5 51.421875 16.5 36.375 
Q 16.5 21.390625 20.328125 13.890625 
Q 24.171875 6.390625 31.78125 6.390625 
Q 39.453125 6.390625 43.28125 13.890625 
Q 47.125 21.390625 47.125 36.375 
Q 47.125 51.421875 43.28125 58.90625 
Q 39.453125 66.40625 31.78125 66.40625 
z
M 31.78125 74.21875 
Q 44.046875 74.21875 50.515625 64.515625 
Q 56.984375 54.828125 56.984375 36.375 
Q 56.984375 17.96875 50.515625 8.265625 
Q 44.046875 -1.421875 31.78125 -1.421875 
Q 19.53125 -1.421875 13.0625 8.265625 
Q 6.59375 17.96875 6.59375 36.375 
Q 6.59375 54.828125 13.0625 64.515625 
Q 19.53125 74.21875 31.78125 74.21875 
z
" id="DejaVuSans-48"/>
       </defs>
       <use xlink:href="#DejaVuSans-48"/>
      </g>
     </g>
    </g>
    <g id="text_4">
     <!-- x1 -->
     <g transform="translate(134.129687 171.376563)scale(0.1 -0.1)">
      <defs>
       <path d="M 54.890625 54.6875 
L 35.109375 28.078125 
L 55.90625 0 
L 45.3125 0 
L 29.390625 21.484375 
L 13.484375 0 
L 2.875 0 
L 24.125 28.609375 
L 4.6875 54.6875 
L 15.28125 54.6875 
L 29.78125 35.203125 
L 44.28125 54.6875 
z
" id="DejaVuSans-120"/>
       <path d="M 12.40625 8.296875 
L 28.515625 8.296875 
L 28.515625 63.921875 
L 10.984375 60.40625 
L 10.984375 69.390625 
L 28.421875 72.90625 
L 38.28125 72.90625 
L 38.28125 8.296875 
L 54.390625 8.296875 
L 54.390625 0 
L 12.40625 0 
z
" id="DejaVuSans-49"/>
      </defs>
      <use xlink:href="#DejaVuSans-120"/>
      <use x="59.179688" xlink:href="#DejaVuSans-49"/>
     </g>
    </g>
   </g>
   <g id="matplotlib.axis_2">
    <g id="ytick_1">
     <g id="line2d_4">
      <defs>
       <path d="M 0 0 
L -3.5 0 
" id="m7ac3585154" style="stroke:#000000;stroke-width:0.8;"/>
      </defs>
      <g>
       <use style="stroke:#000000;stroke-width:0.8;" x="42.620312" xlink:href="#m7ac3585154" y="143.1"/>
      </g>
     </g>
     <g id="text_5">
      <!-- −3 -->
      <g transform="translate(20.878125 146.899219)scale(0.1 -0.1)">
       <defs>
        <path d="M 40.578125 39.3125 
Q 47.65625 37.796875 51.625 33 
Q 55.609375 28.21875 55.609375 21.1875 
Q 55.609375 10.40625 48.1875 4.484375 
Q 40.765625 -1.421875 27.09375 -1.421875 
Q 22.515625 -1.421875 17.65625 -0.515625 
Q 12.796875 0.390625 7.625 2.203125 
L 7.625 11.71875 
Q 11.71875 9.328125 16.59375 8.109375 
Q 21.484375 6.890625 26.8125 6.890625 
Q 36.078125 6.890625 40.9375 10.546875 
Q 45.796875 14.203125 45.796875 21.1875 
Q 45.796875 27.640625 41.28125 31.265625 
Q 36.765625 34.90625 28.71875 34.90625 
L 20.21875 34.90625 
L 20.21875 43.015625 
L 29.109375 43.015625 
Q 36.375 43.015625 40.234375 45.921875 
Q 44.09375 48.828125 44.09375 54.296875 
Q 44.09375 59.90625 40.109375 62.90625 
Q 36.140625 65.921875 28.71875 65.921875 
Q 24.65625 65.921875 20.015625 65.03125 
Q 15.375 64.15625 9.8125 62.3125 
L 9.8125 71.09375 
Q 15.4375 72.65625 20.34375 73.4375 
Q 25.25 74.21875 29.59375 74.21875 
Q 40.828125 74.21875 47.359375 69.109375 
Q 53.90625 64.015625 53.90625 55.328125 
Q 53.90625 49.265625 50.4375 45.09375 
Q 46.96875 40.921875 40.578125 39.3125 
z
" id="DejaVuSans-51"/>
       </defs>
       <use xlink:href="#DejaVuSans-8722"/>
       <use x="83.789062" xlink:href="#DejaVuSans-51"/>
      </g>
     </g>
    </g>
    <g id="ytick_2">
     <g id="line2d_5">
      <g>
       <use style="stroke:#000000;stroke-width:0.8;" x="42.620312" xlink:href="#m7ac3585154" y="112.283673"/>
      </g>
     </g>
     <g id="text_6">
      <!-- −2 -->
      <g transform="translate(20.878125 116.082892)scale(0.1 -0.1)">
       <use xlink:href="#DejaVuSans-8722"/>
       <use x="83.789062" xlink:href="#DejaVuSans-50"/>
      </g>
     </g>
    </g>
    <g id="ytick_3">
     <g id="line2d_6">
      <g>
       <use style="stroke:#000000;stroke-width:0.8;" x="42.620312" xlink:href="#m7ac3585154" y="81.467347"/>
      </g>
     </g>
     <g id="text_7">
      <!-- −1 -->
      <g transform="translate(20.878125 85.266566)scale(0.1 -0.1)">
       <use xlink:href="#DejaVuSans-8722"/>
       <use x="83.789062" xlink:href="#DejaVuSans-49"/>
      </g>
     </g>
    </g>
    <g id="ytick_4">
     <g id="line2d_7">
      <g>
       <use style="stroke:#000000;stroke-width:0.8;" x="42.620312" xlink:href="#m7ac3585154" y="50.65102"/>
      </g>
     </g>
     <g id="text_8">
      <!-- 0 -->
      <g transform="translate(29.257812 54.450239)scale(0.1 -0.1)">
       <use xlink:href="#DejaVuSans-48"/>
      </g>
     </g>
    </g>
    <g id="ytick_5">
     <g id="line2d_8">
      <g>
       <use style="stroke:#000000;stroke-width:0.8;" x="42.620312" xlink:href="#m7ac3585154" y="19.834694"/>
      </g>
     </g>
     <g id="text_9">
      <!-- 1 -->
      <g transform="translate(29.257812 23.633913)scale(0.1 -0.1)">
       <use xlink:href="#DejaVuSans-49"/>
      </g>
     </g>
    </g>
    <g id="text_10">
     <!-- x2 -->
     <g transform="translate(14.798437 81.290625)rotate(-90)scale(0.1 -0.1)">
      <use xlink:href="#DejaVuSans-120"/>
      <use x="59.179688" xlink:href="#DejaVuSans-50"/>
     </g>
    </g>
   </g>
   <g id="LineCollection_1"/>
   <g id="LineCollection_2">
    <path clip-path="url(#pda9f1163ca)" d="M 237.920313 109.07711 
L 237.381801 109.202041 
L 234.86875 109.755154 
L 231.817188 110.347776 
L 228.765625 110.861381 
L 225.714063 111.295971 
L 222.6625 111.651544 
L 219.610938 111.9281 
L 216.559375 112.125641 
L 213.507813 112.244165 
L 210.45625 112.283673 
L 210.45625 112.283673 
L 210.45625 112.283673 
L 207.404688 112.244165 
L 204.353125 112.125641 
L 201.301563 111.9281 
L 198.25 111.651544 
L 195.198438 111.295971 
L 192.146875 110.861381 
L 189.095313 110.347776 
L 186.04375 109.755154 
L 183.530699 109.202041 
L 182.992188 109.07711 
L 179.940625 108.28588 
L 176.889063 107.411362 
L 173.8375 106.453558 
L 172.861 106.120408 
L 170.785938 105.372012 
L 167.734375 104.183382 
L 164.998491 103.038776 
L 164.682813 102.898701 
L 161.63125 101.451268 
L 158.672159 99.957143 
L 158.579688 99.907439 
L 155.528125 98.167808 
L 153.383784 96.87551 
L 152.476563 96.291063 
L 149.425 94.21893 
L 148.829573 93.793878 
L 146.373438 91.910658 
L 144.88314 90.712245 
L 143.321875 89.356327 
L 141.423125 87.630612 
L 140.270313 86.491748 
L 138.387434 84.54898 
L 137.21875 83.22828 
L 135.724107 81.467347 
L 134.167188 79.439957 
L 133.389338 78.385714 
L 131.354963 75.304082 
L 131.115625 74.893197 
L 129.618632 72.222449 
L 128.121639 69.140816 
L 128.064063 69.000742 
L 126.89892 66.059184 
L 125.900227 62.977551 
L 125.123466 59.895918 
L 125.0125 59.279592 
L 124.584211 56.814286 
L 124.262993 53.732653 
L 124.155921 50.65102 
L 124.262993 47.569388 
L 124.584211 44.487755 
L 125.0125 42.022449 
L 125.123466 41.406122 
L 125.900227 38.32449 
L 126.89892 35.242857 
L 128.064063 32.301299 
L 128.121639 32.161224 
L 129.618632 29.079592 
L 131.115625 26.408844 
L 131.354963 25.997959 
L 133.389338 22.916327 
" style="fill:none;stroke:#1f77b4;stroke-width:1.5;"/>
   </g>
   <g id="LineCollection_3">
    <path clip-path="url(#pda9f1163ca)" d="M 237.920313 135.564007 
L 234.86875 136.04026 
L 231.817188 136.460482 
L 228.765625 136.824675 
L 227.655966 136.936735 
L 225.714063 137.125958 
L 222.6625 137.369245 
L 219.610938 137.558468 
L 216.559375 137.693627 
L 213.507813 137.774723 
L 210.45625 137.801754 
L 207.404688 137.774723 
L 204.353125 137.693627 
L 201.301563 137.558468 
L 198.25 137.369245 
L 195.198438 137.125958 
L 193.256534 136.936735 
L 192.146875 136.824675 
L 189.095313 136.460482 
L 186.04375 136.04026 
L 182.992188 135.564007 
L 179.940625 135.031725 
L 176.889063 134.443414 
L 174.102853 133.855102 
L 173.8375 133.796958 
L 170.785938 133.070158 
L 167.734375 132.285214 
L 164.682813 131.442126 
L 162.41875 130.773469 
L 161.63125 130.531773 
L 158.579688 129.534774 
L 155.528125 128.477351 
L 153.383784 127.691837 
L 152.476563 127.345939 
L 149.425 126.119575 
L 146.373438 124.830321 
L 145.876672 124.610204 
L 143.321875 123.430004 
L 140.270313 121.954755 
L 139.426263 121.528571 
L 137.21875 120.364399 
L 134.167188 118.686621 
L 133.748346 118.446939 
L 131.115625 116.87029 
L 128.697406 115.365306 
L 128.064063 114.951916 
L 125.0125 112.884968 
L 124.155921 112.283673 
L 121.960938 110.663841 
L 120.047246 109.202041 
L 118.909375 108.28588 
L 116.308043 106.120408 
L 115.857813 105.724198 
L 112.903125 103.038776 
L 112.80625 102.945393 
L 109.801635 99.957143 
L 109.754688 99.907439 
L 106.976399 96.87551 
L 106.703125 96.556721 
L 104.403397 93.793878 
L 103.651563 92.823734 
L 102.061312 90.712245 
L 100.6 88.616735 
L 99.931164 87.630612 
L 98.008262 84.54898 
L 97.548438 83.741885 
L 96.287125 81.467347 
L 94.741 78.385714 
L 94.496875 77.841897 
L 93.387216 75.304082 
L 92.198295 72.222449 
L 91.445313 69.970487 
L 91.174921 69.140816 
L 90.325119 66.059184 
L 89.629826 62.977551 
L 89.089043 59.895918 
L 88.702769 56.814286 
L 88.471005 53.732653 
L 88.39375 50.65102 
L 88.471005 47.569388 
L 88.702769 44.487755 
L 89.089043 41.406122 
L 89.629826 38.32449 
L 90.325119 35.242857 
L 91.174921 32.161224 
L 91.445313 31.331554 
L 92.198295 29.079592 
L 93.387216 25.997959 
L 94.496875 23.460144 
L 94.741 22.916327 
" style="fill:none;stroke:#1f77b4;stroke-width:1.5;"/>
   </g>
   <g id="LineCollection_4">
    <path clip-path="url(#pda9f1163ca)" d="M 135.724107 143.1 
L 134.167188 142.447112 
L 131.115625 141.11522 
L 128.697406 140.018367 
L 128.064063 139.721017 
L 125.0125 138.234264 
L 122.442763 136.936735 
L 121.960938 136.684601 
L 118.909375 135.031725 
L 116.808299 133.855102 
L 115.857813 133.302734 
L 112.80625 131.471198 
L 111.679519 130.773469 
L 109.754688 129.534774 
L 106.976399 127.691837 
L 106.703125 127.503165 
L 103.651563 125.333444 
L 102.663028 124.610204 
L 100.6 123.036604 
L 98.677098 121.528571 
L 97.548438 120.604082 
L 94.985125 118.446939 
L 94.496875 118.016944 
L 91.564205 115.365306 
L 91.445313 115.252563 
L 88.39375 112.283673 
L 88.39375 112.283673 
L 85.455208 109.202041 
L 85.342188 109.07711 
L 82.731815 106.120408 
L 82.290625 105.592128 
L 80.208382 103.038776 
L 79.239063 101.778108 
L 77.871121 99.957143 
L 76.1875 97.571363 
L 75.707479 96.87551 
L 73.71882 93.793878 
L 73.135938 92.823734 
L 71.895192 90.712245 
L 70.21851 87.630612 
L 70.084375 87.362644 
L 68.70625 84.54898 
L 67.328125 81.467347 
L 67.032813 80.737487 
L 66.101283 78.385714 
L 65.009145 75.304082 
L 64.045493 72.222449 
L 63.98125 71.9854 
L 63.226224 69.140816 
L 62.534117 66.059184 
L 61.967848 62.977551 
L 61.527416 59.895918 
L 61.212822 56.814286 
L 61.024066 53.732653 
L 60.961147 50.65102 
L 61.024066 47.569388 
L 61.212822 44.487755 
L 61.527416 41.406122 
L 61.967848 38.32449 
L 62.534117 35.242857 
L 63.226224 32.161224 
L 63.98125 29.316641 
L 64.045493 29.079592 
L 65.009145 25.997959 
L 66.101283 22.916327 
" style="fill:none;stroke:#1f77b4;stroke-width:1.5;"/>
   </g>
   <g id="LineCollection_5">
    <path clip-path="url(#pda9f1163ca)" d="M 96.287125 143.1 
L 94.496875 141.950917 
L 91.564205 140.018367 
L 91.445313 139.937272 
L 88.39375 137.801754 
L 87.188194 136.936735 
L 85.342188 135.564007 
L 83.099473 133.855102 
L 82.290625 133.215518 
L 79.274963 130.773469 
L 79.239063 130.743257 
L 76.1875 128.114806 
L 75.707479 127.691837 
L 73.135938 125.333444 
L 72.364663 124.610204 
L 70.084375 122.380938 
L 69.23125 121.528571 
L 67.032813 119.234467 
L 66.294013 118.446939 
L 63.98125 115.866967 
L 63.540818 115.365306 
L 60.961147 112.283673 
L 60.929688 112.244165 
L 58.55625 109.202041 
L 57.878125 108.28588 
L 56.307024 106.120408 
L 54.826563 103.963265 
L 54.204399 103.038776 
L 52.249029 99.957143 
L 51.775 99.161883 
L 50.438125 96.87551 
L 48.7525 93.793878 
L 48.723438 93.73681 
L 47.211916 90.712245 
L 45.785952 87.630612 
L 45.671875 87.362644 
L 44.496044 84.54898 
L 43.320212 81.467347 
L 42.620313 79.439957 
" style="fill:none;stroke:#1f77b4;stroke-width:1.5;"/>
   </g>
   <g id="LineCollection_6">
    <path clip-path="url(#pda9f1163ca)" d="M 67.328125 143.1 
L 67.032813 142.86496 
L 63.98125 140.383985 
L 63.540818 140.018367 
L 60.929688 137.774723 
L 59.974148 136.936735 
L 57.878125 135.031725 
L 56.609158 133.855102 
L 54.826563 132.139854 
L 53.434102 130.773469 
L 51.775 129.081593 
L 50.438125 127.691837 
L 48.723438 125.836568 
L 47.611186 124.610204 
L 45.671875 122.380938 
L 44.943979 121.528571 
L 42.620313 118.686621 
" style="fill:none;stroke:#1f77b4;stroke-width:1.5;"/>
   </g>
   <g id="LineCollection_7">
    <path clip-path="url(#pda9f1163ca)" d="M 43.320212 143.1 
L 42.620313 142.447112 
" style="fill:none;stroke:#1f77b4;stroke-width:1.5;"/>
   </g>
   <g id="LineCollection_8"/>
   <g id="line2d_9">
    <path clip-path="url(#pda9f1163ca)" d="M 57.878125 112.283673 
L 70.084375 13.671429 
L 87.41725 23.532653 
L 105.926808 71.852653 
L 123.543942 62.090041 
L 139.305493 38.906302 
L 152.87833 46.105982 
L 164.270982 56.977883 
L 173.662129 52.290853 
L 181.301232 47.323606 
L 187.453185 50.163845 
L 192.369407 52.363445 
L 196.274465 50.723365 
L 199.361537 49.787573 
L 201.79265 50.701193 
L 203.701295 51.077727 
L 205.196013 50.583264 
L 206.364192 50.444443 
L 207.275645 50.705557 
L 207.985821 50.748856 
L 208.538543 50.613969 
" style="fill:none;stroke:#ff7f0e;stroke-linecap:square;stroke-width:1.5;"/>
    <defs>
     <path d="M 0 3 
C 0.795609 3 1.55874 2.683901 2.12132 2.12132 
C 2.683901 1.55874 3 0.795609 3 0 
C 3 -0.795609 2.683901 -1.55874 2.12132 -2.12132 
C 1.55874 -2.683901 0.795609 -3 0 -3 
C -0.795609 -3 -1.55874 -2.683901 -2.12132 -2.12132 
C -2.683901 -1.55874 -3 -0.795609 -3 0 
C -3 0.795609 -2.683901 1.55874 -2.12132 2.12132 
C -1.55874 2.683901 -0.795609 3 0 3 
z
" id="m4ef722d901" style="stroke:#ff7f0e;"/>
    </defs>
    <g clip-path="url(#pda9f1163ca)">
     <use style="fill:#ff7f0e;stroke:#ff7f0e;" x="57.878125" xlink:href="#m4ef722d901" y="112.283673"/>
     <use style="fill:#ff7f0e;stroke:#ff7f0e;" x="70.084375" xlink:href="#m4ef722d901" y="13.671429"/>
     <use style="fill:#ff7f0e;stroke:#ff7f0e;" x="87.41725" xlink:href="#m4ef722d901" y="23.532653"/>
     <use style="fill:#ff7f0e;stroke:#ff7f0e;" x="105.926808" xlink:href="#m4ef722d901" y="71.852653"/>
     <use style="fill:#ff7f0e;stroke:#ff7f0e;" x="123.543942" xlink:href="#m4ef722d901" y="62.090041"/>
     <use style="fill:#ff7f0e;stroke:#ff7f0e;" x="139.305493" xlink:href="#m4ef722d901" y="38.906302"/>
     <use style="fill:#ff7f0e;stroke:#ff7f0e;" x="152.87833" xlink:href="#m4ef722d901" y="46.105982"/>
     <use style="fill:#ff7f0e;stroke:#ff7f0e;" x="164.270982" xlink:href="#m4ef722d901" y="56.977883"/>
     <use style="fill:#ff7f0e;stroke:#ff7f0e;" x="173.662129" xlink:href="#m4ef722d901" y="52.290853"/>
     <use style="fill:#ff7f0e;stroke:#ff7f0e;" x="181.301232" xlink:href="#m4ef722d901" y="47.323606"/>
     <use style="fill:#ff7f0e;stroke:#ff7f0e;" x="187.453185" xlink:href="#m4ef722d901" y="50.163845"/>
     <use style="fill:#ff7f0e;stroke:#ff7f0e;" x="192.369407" xlink:href="#m4ef722d901" y="52.363445"/>
     <use style="fill:#ff7f0e;stroke:#ff7f0e;" x="196.274465" xlink:href="#m4ef722d901" y="50.723365"/>
     <use style="fill:#ff7f0e;stroke:#ff7f0e;" x="199.361537" xlink:href="#m4ef722d901" y="49.787573"/>
     <use style="fill:#ff7f0e;stroke:#ff7f0e;" x="201.79265" xlink:href="#m4ef722d901" y="50.701193"/>
     <use style="fill:#ff7f0e;stroke:#ff7f0e;" x="203.701295" xlink:href="#m4ef722d901" y="51.077727"/>
     <use style="fill:#ff7f0e;stroke:#ff7f0e;" x="205.196013" xlink:href="#m4ef722d901" y="50.583264"/>
     <use style="fill:#ff7f0e;stroke:#ff7f0e;" x="206.364192" xlink:href="#m4ef722d901" y="50.444443"/>
     <use style="fill:#ff7f0e;stroke:#ff7f0e;" x="207.275645" xlink:href="#m4ef722d901" y="50.705557"/>
     <use style="fill:#ff7f0e;stroke:#ff7f0e;" x="207.985821" xlink:href="#m4ef722d901" y="50.748856"/>
     <use style="fill:#ff7f0e;stroke:#ff7f0e;" x="208.538543" xlink:href="#m4ef722d901" y="50.613969"/>
    </g>
   </g>
   <g id="patch_3">
    <path d="M 42.620312 143.1 
L 42.620312 7.2 
" style="fill:none;stroke:#000000;stroke-linecap:square;stroke-linejoin:miter;stroke-width:0.8;"/>
   </g>
   <g id="patch_4">
    <path d="M 237.920313 143.1 
L 237.920313 7.2 
" style="fill:none;stroke:#000000;stroke-linecap:square;stroke-linejoin:miter;stroke-width:0.8;"/>
   </g>
   <g id="patch_5">
    <path d="M 42.620313 143.1 
L 237.920313 143.1 
" style="fill:none;stroke:#000000;stroke-linecap:square;stroke-linejoin:miter;stroke-width:0.8;"/>
   </g>
   <g id="patch_6">
    <path d="M 42.620313 7.2 
L 237.920313 7.2 
" style="fill:none;stroke:#000000;stroke-linecap:square;stroke-linejoin:miter;stroke-width:0.8;"/>
   </g>
  </g>
 </g>
 <defs>
  <clipPath id="pda9f1163ca">
   <rect height="135.9" width="195.3" x="42.620312" y="7.2"/>
  </clipPath>
 </defs>
</svg>
